<svg xmlns="http://www.w3.org/2000/svg" xmlns:xlink="http://www.w3.org/1999/xlink" xmlns:lucid="lucid" width="1399.69" height="602.99"><g transform="translate(1417.1489600153766 467.3448892871843)" lucid:page-tab-id="0_0"><path d="M-1500-500H0V500h-1500z" fill="#f2f3f5"/><path d="M-1195.06-321.28a6 6 0 0 1 6-6h148a6 6 0 0 1 6 6v108a6 6 0 0 1-6 6h-148a6 6 0 0 1-6-6z" stroke="#000" stroke-width="2" fill="#fff"/><use xlink:href="#a" transform="matrix(1,0,0,1,-1190.062314959365,-322.2828233111128) translate(71.2548828125 63)"/><path d="M-1025.63-321.28a6 6 0 0 1 6-6h148a6 6 0 0 1 6 6v108a6 6 0 0 1-6 6h-148a6 6 0 0 1-6-6z" stroke="#000" stroke-width="2" fill="#fff"/><use xlink:href="#a" transform="matrix(1,0,0,1,-1020.6278792999117,-322.2828233111128) translate(71.2548828125 63)"/><path d="M-686.76-321.28a6 6 0 0 1 6-6h148a6 6 0 0 1 6 6v108a6 6 0 0 1-6 6h-148a6 6 0 0 1-6-6z" stroke="#000" stroke-width="2" fill="#fff"/><use xlink:href="#a" transform="matrix(1,0,0,1,-681.759007981005,-322.2828233111128) translate(71.2548828125 63)"/><path d="M-856.2-321.28a6 6 0 0 1 6-6h148a6 6 0 0 1 6 6v108a6 6 0 0 1-6 6h-148a6 6 0 0 1-6-6z" stroke="#000" stroke-width="2" fill="#fff"/><use xlink:href="#a" transform="matrix(1,0,0,1,-851.1934436404583,-322.2828233111128) translate(71.2548828125 63)"/><path d="M-517.33-321.28a6 6 0 0 1 6-6h148a6 6 0 0 1 6 6v108a6 6 0 0 1-6 6h-148a6 6 0 0 1-6-6z" stroke="#000" stroke-width="2" fill="#fff"/><use xlink:href="#a" transform="matrix(1,0,0,1,-512.3245723215516,-322.2828233111128) translate(71.2548828125 63)"/><path d="M-347.9-321.28a6 6 0 0 1 6-6h148a6 6 0 0 1 6 6v108a6 6 0 0 1-6 6h-148a6 6 0 0 1-6-6z" stroke="#000" stroke-width="2" fill="#fff"/><use xlink:href="#a" transform="matrix(1,0,0,1,-342.89013666209826,-322.2828233111128) translate(71.2548828125 63)"/><path d="M-178.46-321.28a6 6 0 0 1 6-6h148a6 6 0 0 1 6 6v108a6 6 0 0 1-6 6h-148a6 6 0 0 1-6-6z" stroke="#000" stroke-width="2" fill="#fff"/><use xlink:href="#a" transform="matrix(1,0,0,1,-173.4557010026449,-322.2828233111128) translate(71.2548828125 63)"/><path d="M-1072.83-384.85c0 24.46-18.9 44.28-42.23 44.28s-42.24-19.82-42.24-44.28c0-24.45 18.9-44.27 42.24-44.27 23.32 0 42.23 19.82 42.23 44.27z" stroke="#000" stroke-width="2" fill="#fff"/><use xlink:href="#b" transform="matrix(1,0,0,1,-1152.2968082159928,-424.1207233531849) translate(29.298828125 49.875)"/><path d="M-908.05-381.6c0 24.45-18.9 44.28-42.24 44.28-23.32 0-42.22-19.83-42.22-44.28 0-24.45 18.9-44.28 42.23-44.28 23.34 0 42.25 19.83 42.25 44.28z" stroke="#000" stroke-width="2" fill="#fff"/><use xlink:href="#c" transform="matrix(1,0,0,1,-987.5243707314396,-420.8759049121843) translate(32.21240234375 49.875)"/><path d="M-743.28-379.56c0 24.45-18.9 44.28-42.24 44.28-23.32 0-42.23-19.83-42.23-44.28 0-24.45 18.9-44.27 42.23-44.27s42.24 19.82 42.24 44.27z" stroke="#000" stroke-width="2" fill="#fff"/><use xlink:href="#d" transform="matrix(1,0,0,1,-822.7519332468866,-418.83452616929935) translate(29.57177734375 49.875)"/><path d="M-565.68-381.6c0 24.45-18.9 44.28-42.24 44.28-23.32 0-42.23-19.83-42.23-44.28 0-24.45 18.9-44.28 42.23-44.28s42.24 19.83 42.24 44.28z" stroke="#000" stroke-width="2" fill="#fff"/><use xlink:href="#e" transform="matrix(1,0,0,1,-645.1519826158938,-420.8759049121843) translate(29.47021484375 49.875)"/><path d="M-400.33-381.6c0 24.45-18.9 44.28-42.24 44.28-23.32 0-42.23-19.83-42.23-44.28 0-24.45 18.9-44.28 42.23-44.28s42.24 19.83 42.24 44.28z" stroke="#000" stroke-width="2" fill="#fff"/><use xlink:href="#f" transform="matrix(1,0,0,1,-479.8003044422105,-420.8759049121843) translate(29.10205078125 49.875)"/><path d="M-239.06-379.56c0 24.45-18.9 44.28-42.24 44.28-23.32 0-42.23-19.83-42.23-44.28 0-24.45 18.9-44.27 42.23-44.27s42.24 19.82 42.24 44.27z" stroke="#000" stroke-width="2" fill="#fff"/><use xlink:href="#g" transform="matrix(1,0,0,1,-318.5313837542976,-418.83452616929935) translate(29.59716796875 49.875)"/><path d="M-63.5-377.52c0 24.46-18.9 44.28-42.24 44.28-23.32 0-42.23-19.82-42.23-44.28 0-24.45 18.9-44.27 42.23-44.27s42.24 19.83 42.24 44.28z" stroke="#000" stroke-width="2" fill="#fff"/><use xlink:href="#h" transform="matrix(1,0,0,1,-142.97281186618966,-416.79314742641435) translate(29.4384765625 49.875)"/><path d="M-1417.15-461.35a6 6 0 0 1 6-6h123.66a6 6 0 0 1 6 6v29.47a6 6 0 0 1-6 6h-123.65a6 6 0 0 1-6-6z" fill="none"/><use xlink:href="#i" transform="matrix(1,0,0,1,-1412.1489600153766,-462.3448892871843) translate(0 25.4580078125)"/><use xlink:href="#j" transform="matrix(1,0,0,1,-1412.1489600153766,-462.3448892871843) translate(22.0263671875 25.4580078125)"/><path d="M-1115.06-204.78v66.2" stroke="#3a414a" stroke-width="3" fill="none"/><path d="M-1113.6-204.74h-2.94v-1.54h2.95z" stroke="#3a414a" stroke-width=".05" fill="#3a414a"/><path d="M-1115.06-124.08l-7.5-13h15z" stroke="#3a414a" stroke-width="3" fill="#3a414a"/><path d="M-1179.75-114.08a6 6 0 0 1 6-6h117.38a6 6 0 0 1 6 6v73.3a6 6 0 0 1-6 6h-117.38a6 6 0 0 1-6-6z" stroke="#000" stroke-width="2" fill="#fff"/><use xlink:href="#k" transform="matrix(1,0,0,1,-1174.7519743877278,-115.08288090828779) translate(51.03076171875 46.5625)"/><path d="M-1115.06-32.3v60.9" stroke="#3a414a" stroke-width="3" fill="none"/><path d="M-1113.6-32.25h-2.94v-1.54h2.95z" stroke="#3a414a" stroke-width=".05" fill="#3a414a"/><path d="M-1115.06 43.1l-7.5-13h15z" stroke="#3a414a" stroke-width="3" fill="#3a414a"/><path d="M-1179.75 53.1a6 6 0 0 1 6-6h117.38a6 6 0 0 1 6 6v73.3a6 6 0 0 1-6 6h-117.38a6 6 0 0 1-6-6z" stroke="#000" stroke-width="2" fill="#fff"/><use xlink:href="#l" transform="matrix(1,0,0,1,-1174.7519743877278,52.08950309317345) translate(51.494140625 46.5625)"/><path d="M-1015.56-114.08a6 6 0 0 1 6-6h117.38a6 6 0 0 1 6 6v73.3a6 6 0 0 1-6 6h-117.38a6 6 0 0 1-6-6z" stroke="#000" stroke-width="2" fill="#fff"/><use xlink:href="#m" transform="matrix(1,0,0,1,-1010.5587775923044,-115.08288090828779) translate(25.83056640625 46.5625)"/><path d="M-846.12-114.08a6 6 0 0 1 6-6h117.38a6 6 0 0 1 6 6v73.3a6 6 0 0 1-6 6h-117.38a6 6 0 0 1-6-6z" stroke="#000" stroke-width="2" fill="#fff"/><use xlink:href="#n" transform="matrix(1,0,0,1,-841.1243419328514,-115.08288090828779) translate(51.6337890625 46.5625)"/><path d="M-781.43-32.3v53.73" stroke="#3a414a" stroke-width="3" fill="none"/><path d="M-779.96-32.25h-2.95v-1.54h2.94z" stroke="#3a414a" stroke-width=".05" fill="#3a414a"/><path d="M-781.43 35.92l-7.5-13h15z" stroke="#3a414a" stroke-width="3" fill="#3a414a"/><path d="M-850.2 55.35a6 6 0 0 1 6-6h117.37a6 6 0 0 1 6 6v73.3a6 6 0 0 1-6 6H-844.2a6 6 0 0 1-6-6z" stroke="#000" stroke-width="2" fill="#fff"/><use xlink:href="#o" transform="matrix(1,0,0,1,-845.2070994186214,54.35155475116517) translate(50.3388671875 46.5625)"/><path d="M-676.7-114.08a6 6 0 0 1 6-6h117.4a6 6 0 0 1 6 6v73.3a6 6 0 0 1-6 6h-117.4a6 6 0 0 1-6-6z" stroke="#000" stroke-width="2" fill="#fff"/><use xlink:href="#p" transform="matrix(1,0,0,1,-671.6899062733984,-115.08288090828779) translate(50.20556640625 46.5625)"/><path d="M-502-114.08a6 6 0 0 1 6-6h117.37a6 6 0 0 1 6 6v73.3a6 6 0 0 1-6 6H-496a6 6 0 0 1-6-6z" stroke="#000" stroke-width="2" fill="#fff"/><use xlink:href="#q" transform="matrix(1,0,0,1,-497.0142317499143,-115.08288090828779) translate(51.265625 46.5625)"/><path d="M-332.58-114.08a6 6 0 0 1 6-6h117.38a6 6 0 0 1 6 6v73.3a6 6 0 0 1-6 6h-117.38a6 6 0 0 1-6-6z" stroke="#000" stroke-width="2" fill="#fff"/><use xlink:href="#r" transform="matrix(1,0,0,1,-327.57979609046095,-115.08288090828779) translate(51.6591796875 46.5625)"/><path d="M-157.9-114.08a6 6 0 0 1 6-6h117.38a6 6 0 0 1 6 6v73.3a6 6 0 0 1-6 6H-151.9a6 6 0 0 1-6-6z" stroke="#000" stroke-width="2" fill="#fff"/><use xlink:href="#s" transform="matrix(1,0,0,1,-152.90412156697653,-115.08288090828779) translate(51.13232421875 46.5625)"/><path d="M-1417.15-406.72a6 6 0 0 1 6-6h176.77a6 6 0 0 1 6 6v104.97a6 6 0 0 1-6 6h-176.77a6 6 0 0 1-6-6z" fill="none"/><use xlink:href="#t" transform="matrix(1,0,0,1,-1412.1489600153766,-407.7241691413801) translate(0 25.207226562500004)"/><use xlink:href="#u" transform="matrix(1,0,0,1,-1412.1489600153766,-407.7241691413801) translate(23.3974609375 25.207226562500004)"/><use xlink:href="#v" transform="matrix(1,0,0,1,-1412.1489600153766,-407.7241691413801) translate(0 62.9580078125)"/><use xlink:href="#w" transform="matrix(1,0,0,1,-1412.1489600153766,-407.7241691413801) translate(0 100.70878906249999)"/><path d="M-945.72-204.8l-4.07 66.26" stroke="#3a414a" stroke-width="3" fill="none"/><path d="M-944.25-204.66l-2.95-.18.1-1.44h2.95z" stroke="#3a414a" stroke-width=".05" fill="#3a414a"/><path d="M-950.68-124.08l-6.7-13.42 14.98.92z" stroke="#3a414a" stroke-width="3" fill="#3a414a"/><path d="M-776.3-204.8l-4.06 66.26" stroke="#3a414a" stroke-width="3" fill="none"/><path d="M-774.82-204.66l-2.94-.18.1-1.44h2.94z" stroke="#3a414a" stroke-width=".05" fill="#3a414a"/><path d="M-781.25-124.08l-6.7-13.42 14.98.92z" stroke="#3a414a" stroke-width="3" fill="#3a414a"/><path d="M-606.85-204.8l-4.08 66.26" stroke="#3a414a" stroke-width="3" fill="none"/><path d="M-605.38-204.66l-2.95-.18.1-1.44h2.95z" stroke="#3a414a" stroke-width=".05" fill="#3a414a"/><path d="M-611.82-124.08l-6.68-13.42 14.97.92z" stroke="#3a414a" stroke-width="3" fill="#3a414a"/><path d="M-437.32-204.78v66.2" stroke="#3a414a" stroke-width="3" fill="none"/><path d="M-435.85-204.74h-2.95v-1.54h2.95z" stroke="#3a414a" stroke-width=".05" fill="#3a414a"/><path d="M-437.32-124.08l-7.5-13h15z" stroke="#3a414a" stroke-width="3" fill="#3a414a"/><path d="M-267.9-204.78v66.2" stroke="#3a414a" stroke-width="3" fill="none"/><path d="M-266.42-204.74h-2.94v-1.54h2.94z" stroke="#3a414a" stroke-width=".05" fill="#3a414a"/><path d="M-267.9-124.08l-7.5-13h15z" stroke="#3a414a" stroke-width="3" fill="#3a414a"/><path d="M-98.36-204.8l4.07 66.26" stroke="#3a414a" stroke-width="3" fill="none"/><path d="M-96.9-204.84l-2.93.18-.1-1.62h2.95z" stroke="#3a414a" stroke-width=".05" fill="#3a414a"/><path d="M-93.4-124.08l-8.28-12.5 14.97-.92z" stroke="#3a414a" stroke-width="3" fill="#3a414a"/><defs><path d="M295 13c-75 0-135-60-135-135s60-135 135-135 135 60 135 135S370 13 295 13" id="x"/><use transform="matrix(0.0126953125,0,0,0.0126953125,0,0)" xlink:href="#x" id="a"/><path d="M646 20c-332 0-524-278-524-764 0-483 194-766 524-766s524 283 524 766c0 485-191 764-524 764zm0-166c218 0 341-220 341-598 0-380-123-601-341-601s-341 222-341 601c0 378 123 598 341 598" id="y"/><use transform="matrix(0.0126953125,0,0,0.0126953125,0,0)" xlink:href="#y" id="b"/><path d="M653-1490V0H466v-1314h-10L96-1047v-204l324-239h233" id="z"/><use transform="matrix(0.0126953125,0,0,0.0126953125,0,0)" xlink:href="#z" id="c"/><path d="M154 0v-137l495-537c165-179 249-281 249-418 0-156-121-253-280-253-170 0-278 110-278 278H158c0-264 200-443 465-443 266 0 455 183 455 416 0 161-73 288-336 568L416-179v12h687V0H154" id="A"/><use transform="matrix(0.0126953125,0,0,0.0126953125,0,0)" xlink:href="#A" id="d"/><path d="M635 20c-292 0-500-160-510-396h192c11 142 145 229 315 229 187 0 323-105 323-260 0-161-125-274-346-274H488v-165h121c174 0 294-100 294-254 0-148-104-245-266-245-152 0-291 85-297 230H157c8-234 222-395 484-395 278 0 448 188 448 400 0 168-95 291-247 336v12c190 31 301 169 301 357 0 244-216 425-508 425" id="B"/><use transform="matrix(0.0126953125,0,0,0.0126953125,0,0)" xlink:href="#B" id="e"/><path d="M120-303v-155l652-1032h231v1020h202v167h-202V0H821v-303H120zm702-167v-782h-12L323-482v12h499" id="C"/><use transform="matrix(0.0126953125,0,0,0.0126953125,0,0)" xlink:href="#C" id="f"/><path d="M626 20c-262 0-458-168-468-396h184c12 133 134 229 284 229 180 0 311-137 311-326 0-192-136-335-323-335-92 0-196 33-255 78l-178-22 88-738h784v167H429l-51 435h8c61-51 160-87 263-87 273 0 474 211 474 499 0 286-210 496-497 496" id="D"/><use transform="matrix(0.0126953125,0,0,0.0126953125,0,0)" xlink:href="#D" id="g"/><path d="M646 20c-249 0-524-159-524-708 0-524 209-822 547-822 250 0 431 161 467 395H950c-33-129-126-227-281-227-229 0-367 208-367 566h12c80-124 212-198 367-198 255 0 467 205 467 493 0 278-198 501-502 501zm0-167c179 0 318-148 318-334 0-182-133-328-313-328-181 0-322 156-322 330 0 176 134 332 317 332" id="E"/><use transform="matrix(0.0126953125,0,0,0.0126953125,0,0)" xlink:href="#E" id="h"/><path d="M200 0l662-1311v-12H98v-167h963v177L400 0H200" id="F"/><use transform="matrix(0.0126953125,0,0,0.0126953125,0,0)" xlink:href="#F" id="i"/><path d="M370-1490V0H180v-1490h190" id="G"/><path d="M180 0v-1490h224l606 953c40 63 108 177 176 312-27-437-7-821-13-1265h190V0h-226C860-448 622-778 356-1262c27 476 11 792 15 1262H180" id="H"/><path d="M645 0H180v-1490h484c435 0 692 280 692 742 0 466-257 748-711 748zM370-168h263c363 0 539-218 539-580 0-358-176-574-521-574H370v1154" id="I"/><path d="M783 20c-382 0-661-292-661-764 0-473 279-766 661-766 302 0 548 182 601 489h-190c-42-204-217-313-411-313-268 0-476 208-476 590 0 381 209 588 476 588 195 0 369-110 411-313h190c-52 303-296 489-601 489" id="J"/><path d="M180 0v-1490h908v168H370v486h669v168H370v500h727V0H180" id="K"/><path d="M657 26c-323 0-524-166-541-416h195c15 169 171 246 346 246 202 0 356-106 356-265 5-203-294-238-475-293-239-73-380-191-380-389 0-252 224-419 512-419 294 0 499 171 508 396H992c-17-145-151-228-328-228-193 0-321 102-321 242 0 156 175 211 284 241l149 41c160 44 422 134 422 412 0 244-197 432-541 432" id="L"/><g id="j"><use transform="matrix(0.0126953125,0,0,0.0126953125,0,0)" xlink:href="#G"/><use transform="matrix(0.0126953125,0,0,0.0126953125,6.982421875,0)" xlink:href="#H"/><use transform="matrix(0.0126953125,0,0,0.0126953125,26.5712890625,0)" xlink:href="#I"/><use transform="matrix(0.0126953125,0,0,0.0126953125,45.3349609375,0)" xlink:href="#G"/><use transform="matrix(0.0126953125,0,0,0.0126953125,52.3173828125,0)" xlink:href="#J"/><use transform="matrix(0.0126953125,0,0,0.0126953125,71.3095703125,0)" xlink:href="#K"/><use transform="matrix(0.0126953125,0,0,0.0126953125,86.9375,0)" xlink:href="#L"/></g><path d="M52 0l541-1490h220L1361 0h-200l-149-416H398L254 0H52zm404-582h497c-103-290-145-390-251-756-108 377-145 460-246 756" id="M"/><use transform="matrix(0.0126953125,0,0,0.0126953125,0,0)" xlink:href="#M" id="k"/><path d="M180 0v-1490h528c311 0 458 177 458 395 0 191-114 278-244 313v14c139 9 302 137 302 371 0 225-148 397-499 397H180zm190-168h350c232 0 321-102 321-231 0-149-120-277-311-277H370v508zm0-668h328c160 0 286-101 286-255 0-129-87-231-280-231H370v486" id="N"/><use transform="matrix(0.0126953125,0,0,0.0126953125,0,0)" xlink:href="#N" id="l"/><path d="M763 24c-353 0-583-224-583-531v-983h190v968c0 214 149 370 393 370 243 0 391-156 391-370v-968h190v983c0 307-230 531-581 531" id="O"/><path d="M180 0v-1490h190v1322h690V0H180" id="P"/><g id="m"><use transform="matrix(0.0126953125,0,0,0.0126953125,0,0)" xlink:href="#H"/><use transform="matrix(0.0126953125,0,0,0.0126953125,19.5888671875,0)" xlink:href="#O"/><use transform="matrix(0.0126953125,0,0,0.0126953125,38.9365234375,0)" xlink:href="#P"/><use transform="matrix(0.0126953125,0,0,0.0126953125,53.6376953125,0)" xlink:href="#P"/></g><path d="M180 0v-1490h510c348 0 508 194 508 460 0 198-88 351-276 417L1256 0h-220L726-579c-117 2-238 0-356 1V0H180zm190-747h312c235 0 327-108 327-283 0-177-92-293-329-293H370v576" id="Q"/><use transform="matrix(0.0126953125,0,0,0.0126953125,0,0)" xlink:href="#Q" id="n"/><path d="M180 0v-1490h190v644h782v-644h190V0h-190v-678H370V0H180" id="R"/><use transform="matrix(0.0126953125,0,0,0.0126953125,0,0)" xlink:href="#R" id="o"/><path d="M180 0v-1490h224l606 953c40 63 108 177 176 312-27-437-7-821-13-1265h190V0h-226C860-448 622-778 356-1262c27 476 11 792 15 1262H180zm723-1685c-99 0-192-83-243-83-35 0-51 40-53 79H481c4-120 55-208 162-208 104 0 174 85 241 85 33 0 49-23 56-81h123c-4 126-62 208-160 208" id="S"/><use transform="matrix(0.0126953125,0,0,0.0126953125,0,0)" xlink:href="#S" id="p"/><path d="M180 0v-1490h190c0 262 1 526-3 784 217-279 467-523 702-784h249L716-845 1319 0h-225L585-716 370-489V0H180" id="T"/><use transform="matrix(0.0126953125,0,0,0.0126953125,0,0)" xlink:href="#T" id="q"/><use transform="matrix(0.0126953125,0,0,0.0126953125,0,0)" xlink:href="#L" id="r"/><path d="M57 0l534-763-501-727h220c122 187 296 416 391 605 94-191 272-419 396-605h215L811-770 1340 0h-219C986-204 811-426 699-640 588-430 407-202 273 0H57" id="U"/><use transform="matrix(0.0126953125,0,0,0.0126953125,0,0)" xlink:href="#U" id="s"/><path d="M633 20c-303 0-511-173-511-416 0-188 124-348 291-378v-8c-145-37-237-174-237-332 0-227 192-396 457-396 261 0 456 169 456 396 0 158-94 295-235 332v8c162 30 291 190 291 378 0 243-212 416-512 416zm0-165c197 0 322-103 322-261 0-165-138-283-322-283-188 0-324 118-324 283 0 158 123 261 324 261zm0-703c157 0 272-101 272-252 0-149-110-246-272-246-165 0-273 97-273 246 0 151 112 252 273 252" id="V"/><use transform="matrix(0.0126953125,0,0,0.0126953125,0,0)" xlink:href="#V" id="t"/><path d="M600 0L52-1490h200c166 485 304 806 458 1336 156-533 285-846 449-1336h202L819 0H600" id="W"/><g id="u"><use transform="matrix(0.0126953125,0,0,0.0126953125,0,0)" xlink:href="#J"/><use transform="matrix(0.0126953125,0,0,0.0126953125,18.9921875,0)" xlink:href="#P"/><use transform="matrix(0.0126953125,0,0,0.0126953125,33.693359375,0)" xlink:href="#M"/><use transform="matrix(0.0126953125,0,0,0.0126953125,49.8544921875,0)" xlink:href="#W"/><use transform="matrix(0.0126953125,0,0,0.0126953125,67.79296875,0)" xlink:href="#K"/><use transform="matrix(0.0126953125,0,0,0.0126953125,83.4208984375,0)" xlink:href="#L"/></g><g id="v"><use transform="matrix(0.0126953125,0,0,0.0126953125,0,0)" xlink:href="#N"/><use transform="matrix(0.0126953125,0,0,0.0126953125,17.01171875,0)" xlink:href="#G"/><use transform="matrix(0.0126953125,0,0,0.0126953125,23.994140625,0)" xlink:href="#K"/><use transform="matrix(0.0126953125,0,0,0.0126953125,39.6220703125,0)" xlink:href="#H"/></g><path d="M98-1322v-168h1126v168H757V0H567v-1322H98" id="X"/><g id="w"><use transform="matrix(0.0126953125,0,0,0.0126953125,0,0)" xlink:href="#I"/><use transform="matrix(0.0126953125,0,0,0.0126953125,18.763671875,0)" xlink:href="#G"/><use transform="matrix(0.0126953125,0,0,0.0126953125,25.74609375,0)" xlink:href="#L"/><use transform="matrix(0.0126953125,0,0,0.0126953125,42.427734375,0)" xlink:href="#X"/><use transform="matrix(0.0126953125,0,0,0.0126953125,59.2109375,0)" xlink:href="#Q"/><use transform="matrix(0.0126953125,0,0,0.0126953125,75.943359375,0)" xlink:href="#G"/><use transform="matrix(0.0126953125,0,0,0.0126953125,82.92578125,0)" xlink:href="#N"/><use transform="matrix(0.0126953125,0,0,0.0126953125,99.9375,0)" xlink:href="#O"/><use transform="matrix(0.0126953125,0,0,0.0126953125,119.28515625,0)" xlink:href="#G"/><use transform="matrix(0.0126953125,0,0,0.0126953125,126.267578125,0)" xlink:href="#I"/><use transform="matrix(0.0126953125,0,0,0.0126953125,144.142578125,0)" xlink:href="#M"/><use transform="matrix(0.0126953125,0,0,0.0126953125,162.0810546875,0)" xlink:href="#L"/></g></defs></g></svg>