<svg xmlns="http://www.w3.org/2000/svg" xmlns:xlink="http://www.w3.org/1999/xlink" xmlns:lucid="lucid" width="2010.42" height="1086.57"><g transform="translate(1921.3235195420152 749.9168516495962)" lucid:page-tab-id="0_0"><path d="M-2000-1000H500V500h-2500z" fill="#f2f3f5"/><path d="M-1195.06-321.28a6 6 0 0 1 6-6h148a6 6 0 0 1 6 6v108a6 6 0 0 1-6 6h-148a6 6 0 0 1-6-6z" stroke="#000" stroke-width="2" fill="#fff"/><use xlink:href="#a" transform="matrix(1,0,0,1,-1190.062314959365,-322.2828233111128) translate(20.94970703125 45.8125)"/><use xlink:href="#b" transform="matrix(1,0,0,1,-1190.062314959365,-322.2828233111128) translate(66.6337890625 83.56328124999999)"/><path d="M-1025.63-321.28a6 6 0 0 1 6-6h148a6 6 0 0 1 6 6v108a6 6 0 0 1-6 6h-148a6 6 0 0 1-6-6z" stroke="#000" stroke-width="2" fill="#fff"/><use xlink:href="#c" transform="matrix(1,0,0,1,-1020.6278792999117,-322.2828233111128) translate(11.52978515625 63)"/><path d="M-686.76-321.28a6 6 0 0 1 6-6h148a6 6 0 0 1 6 6v108a6 6 0 0 1-6 6h-148a6 6 0 0 1-6-6z" stroke="#000" stroke-width="2" fill="#fff"/><use xlink:href="#d" transform="matrix(1,0,0,1,-681.759007981005,-322.2828233111128) translate(35.466796875 63)"/><path d="M-856.2-321.28a6 6 0 0 1 6-6h148a6 6 0 0 1 6 6v108a6 6 0 0 1-6 6h-148a6 6 0 0 1-6-6z" stroke="#000" stroke-width="2" fill="#fff"/><use xlink:href="#d" transform="matrix(1,0,0,1,-851.1934436404583,-322.2828233111128) translate(35.466796875 63)"/><path d="M-517.33-321.28a6 6 0 0 1 6-6h148a6 6 0 0 1 6 6v108a6 6 0 0 1-6 6h-148a6 6 0 0 1-6-6z" stroke="#000" stroke-width="2" fill="#fff"/><use xlink:href="#e" transform="matrix(1,0,0,1,-512.3245723215516,-322.2828233111128) translate(45.8896484375 45.8125)"/><use xlink:href="#f" transform="matrix(1,0,0,1,-512.3245723215516,-322.2828233111128) translate(66.1767578125 83.56328124999999)"/><path d="M-347.9-321.28a6 6 0 0 1 6-6h148a6 6 0 0 1 6 6v108a6 6 0 0 1-6 6h-148a6 6 0 0 1-6-6z" stroke="#000" stroke-width="2" fill="#fff"/><use xlink:href="#c" transform="matrix(1,0,0,1,-342.89013666209826,-322.2828233111128) translate(11.52978515625 63)"/><path d="M-178.46-321.28a6 6 0 0 1 6-6h148a6 6 0 0 1 6 6v108a6 6 0 0 1-6 6h-148a6 6 0 0 1-6-6z" stroke="#000" stroke-width="2" fill="#fff"/><use xlink:href="#g" transform="matrix(1,0,0,1,-173.4557010026449,-322.2828233111128) translate(10.25390625 45.8125)"/><use xlink:href="#h" transform="matrix(1,0,0,1,-173.4557010026449,-322.2828233111128) translate(67.57958984375 83.56328124999999)"/><path d="M-1072.83-384.85c0 24.46-18.9 44.28-42.23 44.28s-42.24-19.82-42.24-44.28c0-24.45 18.9-44.27 42.24-44.27 23.32 0 42.23 19.82 42.23 44.27z" stroke="#000" stroke-width="2" fill="#fff"/><use xlink:href="#i" transform="matrix(1,0,0,1,-1152.2968082159928,-424.1207233531849) translate(29.298828125 49.875)"/><path d="M-908.05-381.6c0 24.45-18.9 44.28-42.24 44.28-23.32 0-42.22-19.83-42.22-44.28 0-24.45 18.9-44.28 42.23-44.28 23.34 0 42.25 19.83 42.25 44.28z" stroke="#000" stroke-width="2" fill="#fff"/><use xlink:href="#j" transform="matrix(1,0,0,1,-987.5243707314396,-420.8759049121843) translate(32.21240234375 49.875)"/><path d="M-743.28-379.56c0 24.45-18.9 44.28-42.24 44.28-23.32 0-42.23-19.83-42.23-44.28 0-24.45 18.9-44.27 42.23-44.27s42.24 19.82 42.24 44.27z" stroke="#000" stroke-width="2" fill="#fff"/><use xlink:href="#k" transform="matrix(1,0,0,1,-822.7519332468866,-418.83452616929935) translate(29.57177734375 49.875)"/><path d="M-565.68-381.6c0 24.45-18.9 44.28-42.24 44.28-23.32 0-42.23-19.83-42.23-44.28 0-24.45 18.9-44.28 42.23-44.28s42.24 19.83 42.24 44.28z" stroke="#000" stroke-width="2" fill="#fff"/><use xlink:href="#l" transform="matrix(1,0,0,1,-645.1519826158938,-420.8759049121843) translate(29.47021484375 49.875)"/><path d="M-400.33-381.6c0 24.45-18.9 44.28-42.24 44.28-23.32 0-42.23-19.83-42.23-44.28 0-24.45 18.9-44.28 42.23-44.28s42.24 19.83 42.24 44.28z" stroke="#000" stroke-width="2" fill="#fff"/><use xlink:href="#m" transform="matrix(1,0,0,1,-479.8003044422105,-420.8759049121843) translate(29.10205078125 49.875)"/><path d="M-239.06-379.56c0 24.45-18.9 44.28-42.24 44.28-23.32 0-42.23-19.83-42.23-44.28 0-24.45 18.9-44.27 42.23-44.27s42.24 19.82 42.24 44.27z" stroke="#000" stroke-width="2" fill="#fff"/><use xlink:href="#n" transform="matrix(1,0,0,1,-318.5313837542976,-418.83452616929935) translate(29.59716796875 49.875)"/><path d="M-63.5-377.52c0 24.46-18.9 44.28-42.24 44.28-23.32 0-42.23-19.82-42.23-44.28 0-24.45 18.9-44.27 42.23-44.27s42.24 19.83 42.24 44.28z" stroke="#000" stroke-width="2" fill="#fff"/><use xlink:href="#o" transform="matrix(1,0,0,1,-142.97281186618966,-416.79314742641435) translate(29.4384765625 49.875)"/><path d="M-1291.1-667.88a6 6 0 0 1 6-6h193.25a6 6 0 0 1 6 6v29.47a6 6 0 0 1-6 6h-193.26a6 6 0 0 1-6-6z" fill="none"/><use xlink:href="#p" transform="matrix(1,0,0,1,-1286.110562732178,-668.8828562238266) translate(0 25.4580078125)"/><use xlink:href="#q" transform="matrix(1,0,0,1,-1286.110562732178,-668.8828562238266) translate(156.025390625 25.4580078125)"/><use xlink:href="#r" transform="matrix(1,0,0,1,-1286.110562732178,-668.8828562238266) translate(180.5400390625 25.4580078125)"/><path d="M-191.7-514.78a6 6 0 0 1 6-6h174.5a6 6 0 0 1 6 6v67.22a6 6 0 0 1-6 6h-174.5a6 6 0 0 1-6-6z" fill="none"/><use xlink:href="#s" transform="matrix(1,0,0,1,-186.70932420562963,-515.7794505074437) translate(0 25.582617187500006)"/><use xlink:href="#q" transform="matrix(1,0,0,1,-186.70932420562963,-515.7794505074437) translate(114.384765625 25.582617187500006)"/><use xlink:href="#t" transform="matrix(1,0,0,1,-186.70932420562963,-515.7794505074437) translate(138.8994140625 25.582617187500006)"/><use xlink:href="#u" transform="matrix(1,0,0,1,-186.70932420562963,-515.7794505074437) translate(0 63.3333984375)"/><use xlink:href="#v" transform="matrix(1,0,0,1,-186.70932420562963,-515.7794505074437) translate(32.8427734375 63.3333984375)"/><use xlink:href="#q" transform="matrix(1,0,0,1,-186.70932420562963,-515.7794505074437) translate(62.181640625 63.3333984375)"/><use xlink:href="#w" transform="matrix(1,0,0,1,-186.70932420562963,-515.7794505074437) translate(86.6962890625 63.3333984375)"/><path d="M-262.7-743.92a6 6 0 0 1 6-6H31.67a6 6 0 0 1 6 6v142.72a6 6 0 0 1-6 6h-288.4a6 6 0 0 1-6-6z" fill="none"/><use xlink:href="#x" transform="matrix(1,0,0,1,-257.7076683858104,-744.9168516495962) translate(0 25.331835937500003)"/><use xlink:href="#y" transform="matrix(1,0,0,1,-257.7076683858104,-744.9168516495962) translate(28.208984375 25.331835937500003)"/><use xlink:href="#z" transform="matrix(1,0,0,1,-257.7076683858104,-744.9168516495962) translate(127.9814453125 25.331835937500003)"/><use xlink:href="#A" transform="matrix(1,0,0,1,-257.7076683858104,-744.9168516495962) translate(0 63.0826171875)"/><use xlink:href="#B" transform="matrix(1,0,0,1,-257.7076683858104,-744.9168516495962) translate(141.3115234375 63.0826171875)"/><use xlink:href="#C" transform="matrix(1,0,0,1,-257.7076683858104,-744.9168516495962) translate(163.2236328125 63.0826171875)"/><use xlink:href="#D" transform="matrix(1,0,0,1,-257.7076683858104,-744.9168516495962) translate(176.8330078125 63.0826171875)"/><use xlink:href="#E" transform="matrix(1,0,0,1,-257.7076683858104,-744.9168516495962) translate(214.6650390625 63.0826171875)"/><use xlink:href="#F" transform="matrix(1,0,0,1,-257.7076683858104,-744.9168516495962) translate(0 100.8333984375)"/><use xlink:href="#G" transform="matrix(1,0,0,1,-257.7076683858104,-744.9168516495962) translate(100.927734375 100.8333984375)"/><use xlink:href="#H" transform="matrix(1,0,0,1,-257.7076683858104,-744.9168516495962) translate(115.73046875 100.8333984375)"/><use xlink:href="#I" transform="matrix(1,0,0,1,-257.7076683858104,-744.9168516495962) translate(178.2041015625 100.8333984375)"/><use xlink:href="#J" transform="matrix(1,0,0,1,-257.7076683858104,-744.9168516495962) translate(0 138.5841796875)"/><path d="M-1186.8-168.6a6 6 0 0 1 6-6h131.48a6 6 0 0 1 6 6v67.23a6 6 0 0 1-6 6h-131.5a6 6 0 0 1-6-6z" fill="none"/><g><use xlink:href="#K" transform="matrix(1,0,0,1,-1181.806572771865,-169.59225873078537) translate(0 25.582617187500006)"/><use xlink:href="#L" transform="matrix(1,0,0,1,-1181.806572771865,-169.59225873078537) translate(116.2763671875 25.582617187500006)"/><use xlink:href="#M" transform="matrix(1,0,0,1,-1181.806572771865,-169.59225873078537) translate(0 63.3333984375)"/><use xlink:href="#N" transform="matrix(1,0,0,1,-1181.806572771865,-169.59225873078537) translate(7.3125 63.3333984375)"/><use xlink:href="#u" transform="matrix(1,0,0,1,-1181.806572771865,-169.59225873078537) translate(31.357421875 63.3333984375)"/><use xlink:href="#O" transform="matrix(1,0,0,1,-1181.806572771865,-169.59225873078537) translate(64.2001953125 63.3333984375)"/><use xlink:href="#P" transform="matrix(1,0,0,1,-1181.806572771865,-169.59225873078537) translate(86.2265625 63.3333984375)"/></g><path d="M-1921.32-141.2a6 6 0 0 1 6-6h553.72a6 6 0 0 1 6 6V1.5a6 6 0 0 1-6 6h-553.72a6 6 0 0 1-6-6z" fill="none"/><g><use xlink:href="#Q" transform="matrix(1,0,0,1,-1916.3235195420152,-142.20714055941676) translate(0 25.331835937500003)"/><use xlink:href="#R" transform="matrix(1,0,0,1,-1916.3235195420152,-142.20714055941676) translate(89.552734375 25.331835937500003)"/><use xlink:href="#S" transform="matrix(1,0,0,1,-1916.3235195420152,-142.20714055941676) translate(111.7060546875 25.331835937500003)"/><use xlink:href="#T" transform="matrix(1,0,0,1,-1916.3235195420152,-142.20714055941676) translate(152.6865234375 25.331835937500003)"/><use xlink:href="#U" transform="matrix(1,0,0,1,-1916.3235195420152,-142.20714055941676) translate(224.8212890625 25.331835937500003)"/><use xlink:href="#V" transform="matrix(1,0,0,1,-1916.3235195420152,-142.20714055941676) translate(267.3505859375 25.331835937500003)"/><use xlink:href="#G" transform="matrix(1,0,0,1,-1916.3235195420152,-142.20714055941676) translate(290.7861328125 25.331835937500003)"/><use xlink:href="#N" transform="matrix(1,0,0,1,-1916.3235195420152,-142.20714055941676) translate(305.5888671875 25.331835937500003)"/><use xlink:href="#G" transform="matrix(1,0,0,1,-1916.3235195420152,-142.20714055941676) translate(329.6337890625 25.331835937500003)"/><use xlink:href="#W" transform="matrix(1,0,0,1,-1916.3235195420152,-142.20714055941676) translate(344.4365234375 25.331835937500003)"/><use xlink:href="#X" transform="matrix(1,0,0,1,-1916.3235195420152,-142.20714055941676) translate(384.05859375 25.331835937500003)"/><use xlink:href="#Y" transform="matrix(1,0,0,1,-1916.3235195420152,-142.20714055941676) translate(0 63.0826171875)"/><use xlink:href="#Z" transform="matrix(1,0,0,1,-1916.3235195420152,-142.20714055941676) translate(39.9521484375 63.0826171875)"/><use xlink:href="#aa" transform="matrix(1,0,0,1,-1916.3235195420152,-142.20714055941676) translate(184.28515625 63.0826171875)"/><use xlink:href="#ab" transform="matrix(1,0,0,1,-1916.3235195420152,-142.20714055941676) translate(279.1318359375 63.0826171875)"/><use xlink:href="#ac" transform="matrix(1,0,0,1,-1916.3235195420152,-142.20714055941676) translate(365.5107421875 63.0826171875)"/><use xlink:href="#ad" transform="matrix(1,0,0,1,-1916.3235195420152,-142.20714055941676) translate(0 100.8333984375)"/><use xlink:href="#ae" transform="matrix(1,0,0,1,-1916.3235195420152,-142.20714055941676) translate(24.958984375 100.8333984375)"/><use xlink:href="#W" transform="matrix(1,0,0,1,-1916.3235195420152,-142.20714055941676) translate(55.935546875 100.8333984375)"/><use xlink:href="#af" transform="matrix(1,0,0,1,-1916.3235195420152,-142.20714055941676) translate(95.5576171875 100.8333984375)"/><use xlink:href="#ag" transform="matrix(1,0,0,1,-1916.3235195420152,-142.20714055941676) translate(136.7158203125 100.8333984375)"/><use xlink:href="#ah" transform="matrix(1,0,0,1,-1916.3235195420152,-142.20714055941676) translate(228.66796875 100.8333984375)"/><use xlink:href="#G" transform="matrix(1,0,0,1,-1916.3235195420152,-142.20714055941676) translate(342.1767578125 100.8333984375)"/><use xlink:href="#W" transform="matrix(1,0,0,1,-1916.3235195420152,-142.20714055941676) translate(356.9794921875 100.8333984375)"/><use xlink:href="#ai" transform="matrix(1,0,0,1,-1916.3235195420152,-142.20714055941676) translate(396.6015625 100.8333984375)"/><use xlink:href="#aj" transform="matrix(1,0,0,1,-1916.3235195420152,-142.20714055941676) translate(0 138.5841796875)"/><use xlink:href="#V" transform="matrix(1,0,0,1,-1916.3235195420152,-142.20714055941676) translate(92.77734375 138.5841796875)"/><use xlink:href="#ak" transform="matrix(1,0,0,1,-1916.3235195420152,-142.20714055941676) translate(116.212890625 138.5841796875)"/><use xlink:href="#al" transform="matrix(1,0,0,1,-1916.3235195420152,-142.20714055941676) translate(209.98046875 138.5841796875)"/><use xlink:href="#am" transform="matrix(1,0,0,1,-1916.3235195420152,-142.20714055941676) translate(379.158203125 138.5841796875)"/><use xlink:href="#ab" transform="matrix(1,0,0,1,-1916.3235195420152,-142.20714055941676) translate(425.4072265625 138.5841796875)"/><use xlink:href="#an" transform="matrix(1,0,0,1,-1916.3235195420152,-142.20714055941676) translate(511.7861328125 138.5841796875)"/><use xlink:href="#ao" transform="matrix(1,0,0,1,-1916.3235195420152,-142.20714055941676) translate(538.9794921875 138.5841796875)"/></g><path d="M-1116.55-95.2l-221.66 23.5" stroke="#3a414a" stroke-width="3" fill="none"/><path d="M-1111.92-94.22l-4.52.48-.17-1.63h4.55z" stroke="#3a414a" stroke-width=".05" fill="#3a414a"/><path d="M-1352.62-70.16l12.13-8.83 1.6 14.92z" stroke="#3a414a" stroke-width="3" fill="#3a414a"/><path d="M-112.5-593.7v55.43" stroke="#3a414a" stroke-width="3" fill="none"/><path d="M-111.04-593.66H-114v-1.54h2.96z" stroke="#3a414a" stroke-width=".05" fill="#3a414a"/><path d="M-112.5-523.78l-7.5-13h15z" stroke="#3a414a" stroke-width="3" fill="#3a414a"/><path d="M-565.68-67.72a6 6 0 0 1 6-6H78.6a6 6 0 0 1 6 6V-.5a6 6 0 0 1-6 6h-638.28a6 6 0 0 1-6-6z" fill="none"/><g><use xlink:href="#ap" transform="matrix(1,0,0,1,-560.6829961026381,-68.71750581555534) translate(0 25.582617187500006)"/><use xlink:href="#q" transform="matrix(1,0,0,1,-560.6829961026381,-68.71750581555534) translate(32.271484375 25.582617187500006)"/><use xlink:href="#aq" transform="matrix(1,0,0,1,-560.6829961026381,-68.71750581555534) translate(56.7861328125 25.582617187500006)"/><use xlink:href="#G" transform="matrix(1,0,0,1,-560.6829961026381,-68.71750581555534) translate(80.89453125 25.582617187500006)"/><use xlink:href="#W" transform="matrix(1,0,0,1,-560.6829961026381,-68.71750581555534) translate(95.697265625 25.582617187500006)"/><use xlink:href="#ar" transform="matrix(1,0,0,1,-560.6829961026381,-68.71750581555534) translate(135.3193359375 25.582617187500006)"/><use xlink:href="#as" transform="matrix(1,0,0,1,-560.6829961026381,-68.71750581555534) translate(250.7578125 25.582617187500006)"/><use xlink:href="#at" transform="matrix(1,0,0,1,-560.6829961026381,-68.71750581555534) translate(302.3134765625 25.582617187500006)"/><use xlink:href="#au" transform="matrix(1,0,0,1,-560.6829961026381,-68.71750581555534) translate(391.8662109375 25.582617187500006)"/><use xlink:href="#T" transform="matrix(1,0,0,1,-560.6829961026381,-68.71750581555534) translate(438.6484375 25.582617187500006)"/><use xlink:href="#av" transform="matrix(1,0,0,1,-560.6829961026381,-68.71750581555534) translate(510.783203125 25.582617187500006)"/><use xlink:href="#aw" transform="matrix(1,0,0,1,-560.6829961026381,-68.71750581555534) translate(0 63.3333984375)"/><use xlink:href="#W" transform="matrix(1,0,0,1,-560.6829961026381,-68.71750581555534) translate(46.7822265625 63.3333984375)"/><use xlink:href="#ax" transform="matrix(1,0,0,1,-560.6829961026381,-68.71750581555534) translate(86.404296875 63.3333984375)"/><use xlink:href="#ay" transform="matrix(1,0,0,1,-560.6829961026381,-68.71750581555534) translate(183.1806640625 63.3333984375)"/><use xlink:href="#az" transform="matrix(1,0,0,1,-560.6829961026381,-68.71750581555534) translate(261.0537109375 63.3333984375)"/></g><path d="M-241.88-74.4l-170.6-84.92" stroke="#3a414a" stroke-width="3" fill="none"/><path d="M-237.23-73.72h-5.03l1-2z" stroke="#3a414a" stroke-width=".05" fill="#3a414a"/><path d="M-425.45-165.78l14.97-.93-6.7 13.42z" stroke="#3a414a" stroke-width="3" fill="#3a414a"/><path d="M-1144.66 112.43a6 6 0 0 1 6-6h312.58a6 6 0 0 1 6 6v218.22a6 6 0 0 1-6 6h-312.58a6 6 0 0 1-6-6z" fill="none"/><g><use xlink:href="#aA" transform="matrix(1,0,0,1,-1139.6623067311953,111.42727864365679) translate(0 25.581054687500014)"/><use xlink:href="#aB" transform="matrix(1,0,0,1,-1139.6623067311953,111.42727864365679) translate(42.529296875 25.581054687500014)"/><use xlink:href="#aC" transform="matrix(1,0,0,1,-1139.6623067311953,111.42727864365679) translate(142.466796875 25.581054687500014)"/><use xlink:href="#aD" transform="matrix(1,0,0,1,-1139.6623067311953,111.42727864365679) translate(0 63.33183593750001)"/><use xlink:href="#G" transform="matrix(1,0,0,1,-1139.6623067311953,111.42727864365679) translate(134.2529296875 63.33183593750001)"/><use xlink:href="#U" transform="matrix(1,0,0,1,-1139.6623067311953,111.42727864365679) translate(149.0556640625 63.33183593750001)"/><use xlink:href="#aE" transform="matrix(1,0,0,1,-1139.6623067311953,111.42727864365679) translate(191.5849609375 63.33183593750001)"/><use xlink:href="#aF" transform="matrix(1,0,0,1,-1139.6623067311953,111.42727864365679) translate(0 101.0826171875)"/><use xlink:href="#aG" transform="matrix(1,0,0,1,-1139.6623067311953,111.42727864365679) translate(145.2724609375 101.0826171875)"/><use xlink:href="#aH" transform="matrix(1,0,0,1,-1139.6623067311953,111.42727864365679) translate(0 138.83339843750002)"/><use xlink:href="#aI" transform="matrix(1,0,0,1,-1139.6623067311953,111.42727864365679) translate(97.55078125 138.83339843750002)"/><use xlink:href="#G" transform="matrix(1,0,0,1,-1139.6623067311953,111.42727864365679) translate(189.541015625 138.83339843750002)"/><use xlink:href="#aJ" transform="matrix(1,0,0,1,-1139.6623067311953,111.42727864365679) translate(204.34375 138.83339843750002)"/><use xlink:href="#aK" transform="matrix(1,0,0,1,-1139.6623067311953,111.42727864365679) translate(266.5126953125 138.83339843750002)"/><use xlink:href="#aL" transform="matrix(1,0,0,1,-1139.6623067311953,111.42727864365679) translate(0 176.5841796875)"/><use xlink:href="#aM" transform="matrix(1,0,0,1,-1139.6623067311953,111.42727864365679) translate(37.6416015625 176.5841796875)"/><use xlink:href="#G" transform="matrix(1,0,0,1,-1139.6623067311953,111.42727864365679) translate(152.2041015625 176.5841796875)"/><use xlink:href="#aN" transform="matrix(1,0,0,1,-1139.6623067311953,111.42727864365679) translate(167.0068359375 176.5841796875)"/><use xlink:href="#aK" transform="matrix(1,0,0,1,-1139.6623067311953,111.42727864365679) translate(275.3486328125 176.5841796875)"/><use xlink:href="#af" transform="matrix(1,0,0,1,-1139.6623067311953,111.42727864365679) translate(0 214.3349609375)"/><use xlink:href="#aO" transform="matrix(1,0,0,1,-1139.6623067311953,111.42727864365679) translate(41.158203125 214.3349609375)"/><use xlink:href="#aP" transform="matrix(1,0,0,1,-1139.6623067311953,111.42727864365679) translate(137.236328125 214.3349609375)"/></g><defs><path d="M613 24c-304 0-509-231-509-576 0-350 205-580 509-580 305 0 511 230 511 580 0 345-206 576-511 576zm0-161c226 0 329-195 329-415 0-222-103-419-329-419-223 0-326 196-326 419 0 220 103 415 326 415" id="aQ"/><path d="M613 24c-304 0-509-231-509-576 0-350 205-580 509-580 216 0 392 114 453 309l-173 49c-33-115-133-197-280-197-223 0-326 196-326 419 0 220 103 415 326 415 150 0 252-85 285-206l172 49C1010-95 832 24 613 24" id="aR"/><path d="M537 14c-226 0-379-139-379-422v-710h180v695c0 172 97 275 253 275 160 0 281-109 281-300v-670h181V0H879v-209C806-46 684 14 537 14" id="aS"/><path d="M158 418v-1536h174v179h20c37-59 106-193 324-193 279 0 474 222 474 576 0 356-194 580-473 580-213 0-288-135-325-197h-14v591H158zm492-555c209 0 317-186 317-421 0-232-105-413-317-413-206 0-314 166-314 413 0 249 111 421 314 421" id="aT"/><path d="M471 26C259 26 90-98 90-318c0-256 228-303 435-329 202-27 287-16 287-108 0-139-79-219-234-219-161 0-248 86-283 164l-173-57c86-203 278-265 451-265 150 0 419 46 419 395V0H815v-152h-12C765-73 660 26 471 26zm31-159c199 0 310-134 310-271v-155c-30 35-226 55-295 64-131 17-246 59-246 186 0 116 97 176 231 176" id="aU"/><path d="M577 24c-279 0-473-224-473-580 0-354 195-576 474-576 218 0 287 134 324 193h14v-551h180V0H922v-173h-20C865-111 790 24 577 24zm27-161c203 0 314-172 314-421 0-247-108-413-314-413-212 0-317 181-317 413 0 235 108 421 317 421" id="aV"/><g id="a"><use transform="matrix(0.0126953125,0,0,0.0126953125,0,0)" xlink:href="#aQ"/><use transform="matrix(0.0126953125,0,0,0.0126953125,15.58984375,0)" xlink:href="#aR"/><use transform="matrix(0.0126953125,0,0,0.0126953125,30.443359375,0)" xlink:href="#aS"/><use transform="matrix(0.0126953125,0,0,0.0126953125,45.8173828125,0)" xlink:href="#aT"/><use transform="matrix(0.0126953125,0,0,0.0126953125,61.9912109375,0)" xlink:href="#aU"/><use transform="matrix(0.0126953125,0,0,0.0126953125,76.5908203125,0)" xlink:href="#aV"/><use transform="matrix(0.0126953125,0,0,0.0126953125,92.5107421875,0)" xlink:href="#aQ"/></g><path d="M180 0v-1490h510c348 0 508 194 508 460 0 198-88 351-276 417L1256 0h-220L726-579c-117 2-238 0-356 1V0H180zm190-747h312c235 0 327-108 327-283 0-177-92-293-329-293H370v576" id="aW"/><use transform="matrix(0.0126953125,0,0,0.0126953125,0,0)" xlink:href="#aW" id="b"/><path d="M180 0v-1490h528c311 0 458 177 458 395 0 191-114 278-244 313v14c139 9 302 137 302 371 0 225-148 397-499 397H180zm190-168h350c232 0 321-102 321-231 0-149-120-277-311-277H370v508zm0-668h328c160 0 286-101 286-255 0-129-87-231-280-231H370v486" id="aX"/><path d="M784 20c-382 0-662-292-662-764 0-473 280-766 662-766s660 293 660 766c0 472-278 764-660 764zm0-176c266 0 475-207 475-588 0-383-209-590-475-590-268 0-477 208-477 590 0 380 209 588 477 588" id="aY"/><path d="M52 0l541-1490h220L1361 0h-200l-149-416H398L254 0H52zm404-582h497c-103-290-145-390-251-756-108 377-145 460-246 756" id="aZ"/><path d="M645 0H180v-1490h484c435 0 692 280 692 742 0 466-257 748-711 748zM370-168h263c363 0 539-218 539-580 0-358-176-574-521-574H370v1154" id="ba"/><g id="c"><use transform="matrix(0.0126953125,0,0,0.0126953125,0,0)" xlink:href="#aX"/><use transform="matrix(0.0126953125,0,0,0.0126953125,17.01171875,0)" xlink:href="#aY"/><use transform="matrix(0.0126953125,0,0,0.0126953125,36.892578125,0)" xlink:href="#aW"/><use transform="matrix(0.0126953125,0,0,0.0126953125,53.625,0)" xlink:href="#aW"/><use transform="matrix(0.0126953125,0,0,0.0126953125,70.357421875,0)" xlink:href="#aZ"/><use transform="matrix(0.0126953125,0,0,0.0126953125,88.2958984375,0)" xlink:href="#ba"/><use transform="matrix(0.0126953125,0,0,0.0126953125,107.0595703125,0)" xlink:href="#aY"/></g><path d="M600 0L52-1490h200c166 485 304 806 458 1336 156-533 285-846 449-1336h202L819 0H600" id="bb"/><path d="M783 20c-382 0-661-292-661-764 0-473 279-766 661-766 302 0 548 182 601 489h-190c-42-204-217-313-411-313-268 0-476 208-476 590 0 381 209 588 476 588 195 0 369-110 411-313h190c-52 303-296 489-601 489" id="bc"/><path d="M370-1490V0H180v-1490h190" id="bd"/><g id="d"><use transform="matrix(0.0126953125,0,0,0.0126953125,0,0)" xlink:href="#bb"/><use transform="matrix(0.0126953125,0,0,0.0126953125,16.1611328125,0)" xlink:href="#aZ"/><use transform="matrix(0.0126953125,0,0,0.0126953125,33.2109375,0)" xlink:href="#bc"/><use transform="matrix(0.0126953125,0,0,0.0126953125,52.203125,0)" xlink:href="#bd"/><use transform="matrix(0.0126953125,0,0,0.0126953125,59.185546875,0)" xlink:href="#aY"/></g><path d="M763 24c-353 0-583-224-583-531v-983h190v968c0 214 149 370 393 370 243 0 391-156 391-370v-968h190v983c0 307-230 531-581 531" id="be"/><g id="e"><use transform="matrix(0.0126953125,0,0,0.0126953125,0,0)" xlink:href="#aY"/><use transform="matrix(0.0126953125,0,0,0.0126953125,19.880859375,0)" xlink:href="#bc"/><use transform="matrix(0.0126953125,0,0,0.0126953125,38.873046875,0)" xlink:href="#be"/></g><path d="M600 0v-610L52-1490h220l295 481c50 82 90 150 130 243 40-96 80-164 128-243l294-481h219L790-610V0H600" id="bf"/><use transform="matrix(0.0126953125,0,0,0.0126953125,0,0)" xlink:href="#bf" id="f"/><path d="M180 0v-1490h510c348 0 508 209 508 474 0 266-160 477-507 477H370V0H180zm190-706h312c236 0 327-133 327-310 0-176-91-307-329-307H370v617" id="bg"/><g id="g"><use transform="matrix(0.0126953125,0,0,0.0126953125,0,0)" xlink:href="#aY"/><use transform="matrix(0.0126953125,0,0,0.0126953125,19.880859375,0)" xlink:href="#bc"/><use transform="matrix(0.0126953125,0,0,0.0126953125,38.873046875,0)" xlink:href="#be"/><use transform="matrix(0.0126953125,0,0,0.0126953125,58.220703125,0)" xlink:href="#bg"/><use transform="matrix(0.0126953125,0,0,0.0126953125,72.9091796875,0)" xlink:href="#aZ"/><use transform="matrix(0.0126953125,0,0,0.0126953125,90.84765625,0)" xlink:href="#ba"/><use transform="matrix(0.0126953125,0,0,0.0126953125,109.611328125,0)" xlink:href="#aY"/></g><path d="M545 20c-263 0-445-160-445-446v-80h190v80c0 182 102 279 255 279 152 0 254-97 254-279v-1064h190v1064c0 286-181 446-444 446" id="bh"/><use transform="matrix(0.0126953125,0,0,0.0126953125,0,0)" xlink:href="#bh" id="h"/><path d="M646 20c-332 0-524-278-524-764 0-483 194-766 524-766s524 283 524 766c0 485-191 764-524 764zm0-166c218 0 341-220 341-598 0-380-123-601-341-601s-341 222-341 601c0 378 123 598 341 598" id="bi"/><use transform="matrix(0.0126953125,0,0,0.0126953125,0,0)" xlink:href="#bi" id="i"/><path d="M653-1490V0H466v-1314h-10L96-1047v-204l324-239h233" id="bj"/><use transform="matrix(0.0126953125,0,0,0.0126953125,0,0)" xlink:href="#bj" id="j"/><path d="M154 0v-137l495-537c165-179 249-281 249-418 0-156-121-253-280-253-170 0-278 110-278 278H158c0-264 200-443 465-443 266 0 455 183 455 416 0 161-73 288-336 568L416-179v12h687V0H154" id="bk"/><use transform="matrix(0.0126953125,0,0,0.0126953125,0,0)" xlink:href="#bk" id="k"/><path d="M635 20c-292 0-500-160-510-396h192c11 142 145 229 315 229 187 0 323-105 323-260 0-161-125-274-346-274H488v-165h121c174 0 294-100 294-254 0-148-104-245-266-245-152 0-291 85-297 230H157c8-234 222-395 484-395 278 0 448 188 448 400 0 168-95 291-247 336v12c190 31 301 169 301 357 0 244-216 425-508 425" id="bl"/><use transform="matrix(0.0126953125,0,0,0.0126953125,0,0)" xlink:href="#bl" id="l"/><path d="M120-303v-155l652-1032h231v1020h202v167h-202V0H821v-303H120zm702-167v-782h-12L323-482v12h499" id="bm"/><use transform="matrix(0.0126953125,0,0,0.0126953125,0,0)" xlink:href="#bm" id="m"/><path d="M626 20c-262 0-458-168-468-396h184c12 133 134 229 284 229 180 0 311-137 311-326 0-192-136-335-323-335-92 0-196 33-255 78l-178-22 88-738h784v167H429l-51 435h8c61-51 160-87 263-87 273 0 474 211 474 499 0 286-210 496-497 496" id="bn"/><use transform="matrix(0.0126953125,0,0,0.0126953125,0,0)" xlink:href="#bn" id="n"/><path d="M646 20c-249 0-524-159-524-708 0-524 209-822 547-822 250 0 431 161 467 395H950c-33-129-126-227-281-227-229 0-367 208-367 566h12c80-124 212-198 367-198 255 0 467 205 467 493 0 278-198 501-502 501zm0-167c179 0 318-148 318-334 0-182-133-328-313-328-181 0-322 156-322 330 0 176 134 332 317 332" id="bo"/><use transform="matrix(0.0126953125,0,0,0.0126953125,0,0)" xlink:href="#bo" id="o"/><g id="p"><use transform="matrix(0.0126953125,0,0,0.0126953125,0,0)" xlink:href="#bc"/><use transform="matrix(0.0126953125,0,0,0.0126953125,18.484375,0)" xlink:href="#aZ"/><use transform="matrix(0.0126953125,0,0,0.0126953125,36.4228515625,0)" xlink:href="#bg"/><use transform="matrix(0.0126953125,0,0,0.0126953125,51.111328125,0)" xlink:href="#aZ"/><use transform="matrix(0.0126953125,0,0,0.0126953125,68.1611328125,0)" xlink:href="#bc"/><use transform="matrix(0.0126953125,0,0,0.0126953125,87.1533203125,0)" xlink:href="#bd"/><use transform="matrix(0.0126953125,0,0,0.0126953125,94.1357421875,0)" xlink:href="#ba"/><use transform="matrix(0.0126953125,0,0,0.0126953125,112.0107421875,0)" xlink:href="#aZ"/><use transform="matrix(0.0126953125,0,0,0.0126953125,129.94921875,0)" xlink:href="#ba"/></g><path d="M226-283v-166h904v166H226zm0-434v-166h904v166H226" id="bp"/><use transform="matrix(0.0126953125,0,0,0.0126953125,0,0)" xlink:href="#bp" id="q"/><path d="M200 0l662-1311v-12H98v-167h963v177L400 0H200" id="bq"/><use transform="matrix(0.0126953125,0,0,0.0126953125,0,0)" xlink:href="#bq" id="r"/><path d="M180 0v-1490h190v644h782v-644h190V0h-190v-678H370V0H180" id="br"/><path d="M657 26c-323 0-524-166-541-416h195c15 169 171 246 346 246 202 0 356-106 356-265 5-203-294-238-475-293-239-73-380-191-380-389 0-252 224-419 512-419 294 0 499 171 508 396H992c-17-145-151-228-328-228-193 0-321 102-321 242 0 156 175 211 284 241l149 41c160 44 422 134 422 412 0 244-197 432-541 432" id="bs"/><path d="M218-607c0-325 108-727 258-974h175c-155 315-250 682-250 974 0 265 78 531 250 886H476C306-10 218-315 218-607" id="bt"/><path d="M96 279C273-86 346-350 346-607c0-292-95-659-250-974h175c150 246 258 650 258 974 0 297-91 602-258 886H96" id="bu"/><g id="s"><use transform="matrix(0.0126953125,0,0,0.0126953125,0,0)" xlink:href="#br"/><use transform="matrix(0.0126953125,0,0,0.0126953125,19.322265625,0)" xlink:href="#aZ"/><use transform="matrix(0.0126953125,0,0,0.0126953125,37.2607421875,0)" xlink:href="#bs"/><use transform="matrix(0.0126953125,0,0,0.0126953125,53.9423828125,0)" xlink:href="#br"/><use transform="matrix(0.0126953125,0,0,0.0126953125,73.2646484375,0)" xlink:href="#bt"/><use transform="matrix(0.0126953125,0,0,0.0126953125,82.748046875,0)" xlink:href="#bh"/><use transform="matrix(0.0126953125,0,0,0.0126953125,97.5888671875,0)" xlink:href="#bu"/></g><use transform="matrix(0.0126953125,0,0,0.0126953125,0,0)" xlink:href="#bh" id="t"/><path d="M1490 29c-191 0-293-139-293-303v-78c0-164 105-302 293-302 192 0 291 139 291 302v78c0 164-102 303-291 303zM523-831c-191 0-293-139-293-303v-78c0-164 105-302 293-302 192 0 291 139 291 302v78c0 164-102 303-291 303zM404 0l1024-1490h169L573 0H404zm1086-102c130-4 138-119 138-250 0-88-34-172-138-172-129 0-140 119-140 250 0 89 37 172 140 172zM523-962c130-4 138-119 138-250 0-88-34-172-138-172-129 0-140 119-140 250 0 89 37 172 140 172" id="bv"/><use transform="matrix(0.0126953125,0,0,0.0126953125,0,0)" xlink:href="#bv" id="u"/><use transform="matrix(0.0126953125,0,0,0.0126953125,0,0)" xlink:href="#bq" id="v"/><use transform="matrix(0.0126953125,0,0,0.0126953125,0,0)" xlink:href="#bo" id="w"/><path d="M338-1490V0H158v-1490h180" id="bw"/><g id="x"><use transform="matrix(0.0126953125,0,0,0.0126953125,0,0)" xlink:href="#bw"/><use transform="matrix(0.0126953125,0,0,0.0126953125,6.296875,0)" xlink:href="#aU"/></g><path d="M678-1118v154H420V0H240v-964H20v-154h220v-149c0-194 155-293 318-293 85 0 141 18 168 30l-50 154c-19-6-47-17-97-17-111 0-159 58-159 166v109h258" id="bx"/><path d="M338-670V0H158v-1118h173l1 207c72-158 192-221 342-221 226 0 378 139 378 422V0H872v-695c0-172-96-275-252-275-161 0-282 109-282 300" id="by"/><path d="M158 0v-1118h180V0H158zm91-1301c-68 0-125-53-125-119s57-119 125-119c69 0 126 53 126 119s-57 119-126 119" id="bz"/><g id="y"><use transform="matrix(0.0126953125,0,0,0.0126953125,0,0)" xlink:href="#bx"/><use transform="matrix(0.0126953125,0,0,0.0126953125,9.623046875,0)" xlink:href="#aS"/><use transform="matrix(0.0126953125,0,0,0.0126953125,24.9970703125,0)" xlink:href="#by"/><use transform="matrix(0.0126953125,0,0,0.0126953125,40.3583984375,0)" xlink:href="#aR"/><use transform="matrix(0.0126953125,0,0,0.0126953125,55.2119140625,0)" xlink:href="#bz"/><use transform="matrix(0.0126953125,0,0,0.0126953125,61.5087890625,0)" xlink:href="#aQ"/><use transform="matrix(0.0126953125,0,0,0.0126953125,77.0986328125,0)" xlink:href="#by"/></g><path d="M338-670V0H158v-1490h180v566c73-149 190-208 336-208 226 0 379 139 379 422V0H872v-695c0-172-96-275-252-275-161 0-282 109-282 300" id="bA"/><path d="M538 24C308 24 148-78 108-271l171-41c32 123 123 178 257 178 156 0 256-77 256-169 0-77-54-128-164-154l-186-44c-203-48-300-148-300-305 0-192 176-326 414-326 230 0 351 112 402 269l-163 42c-31-80-94-158-238-158-133 0-233 69-233 162 0 83 57 129 188 160l169 40c203 48 298 149 298 302 0 196-179 339-441 339" id="bB"/><path d="M611 442c-248 0-391-105-460-228l146-94c47 65 117 165 314 165 178 0 307-82 307-266v-224h-17C863-141 792-18 576-18c-268 0-472-195-472-546 0-346 197-568 476-568 216 0 288 133 326 193h17v-179h175V29c0 289-215 413-487 413zm-5-620c203 0 314-146 314-390 0-237-108-403-314-403-213 0-319 180-319 403 0 230 109 390 319 390" id="bC"/><g id="z"><use transform="matrix(0.0126953125,0,0,0.0126953125,0,0)" xlink:href="#bA"/><use transform="matrix(0.0126953125,0,0,0.0126953125,15.3740234375,0)" xlink:href="#aU"/><use transform="matrix(0.0126953125,0,0,0.0126953125,29.9736328125,0)" xlink:href="#bB"/><use transform="matrix(0.0126953125,0,0,0.0126953125,43.697265625,0)" xlink:href="#bA"/><use transform="matrix(0.0126953125,0,0,0.0126953125,59.0712890625,0)" xlink:href="#bz"/><use transform="matrix(0.0126953125,0,0,0.0126953125,65.3681640625,0)" xlink:href="#by"/><use transform="matrix(0.0126953125,0,0,0.0126953125,80.7294921875,0)" xlink:href="#bC"/></g><path d="M598-1118v154H368v674c0 100 37 144 132 144 23 0 62-6 92-12L629-6c-37 13-88 20-134 20-193 0-307-107-307-290v-688H20v-154h168v-266h180v266h230" id="bD"/><path d="M158 0v-1118h174v172h12c41-113 157-188 290-188 26 0 70 2 91 3v181c-11-2-60-10-108-10-161 0-279 109-279 260V0H158" id="bE"/><path d="M158 0v-1118h175l1 205c55-151 181-225 313-225 147 0 245 90 285 228 53-141 190-228 352-228 194 0 352 125 352 384V0h-181v-749c0-161-105-225-225-225-151 0-243 103-243 244V0H807v-767c0-124-93-207-219-207-131 0-250 92-250 270V0H158" id="bF"/><g id="A"><use transform="matrix(0.0126953125,0,0,0.0126953125,0,0)" xlink:href="#bD"/><use transform="matrix(0.0126953125,0,0,0.0126953125,8.505859375,0)" xlink:href="#bE"/><use transform="matrix(0.0126953125,0,0,0.0126953125,18.2939453125,0)" xlink:href="#aU"/><use transform="matrix(0.0126953125,0,0,0.0126953125,32.8935546875,0)" xlink:href="#by"/><use transform="matrix(0.0126953125,0,0,0.0126953125,48.2548828125,0)" xlink:href="#bB"/><use transform="matrix(0.0126953125,0,0,0.0126953125,61.978515625,0)" xlink:href="#bx"/><use transform="matrix(0.0126953125,0,0,0.0126953125,70.83984375,0)" xlink:href="#aQ"/><use transform="matrix(0.0126953125,0,0,0.0126953125,86.4296875,0)" xlink:href="#bE"/><use transform="matrix(0.0126953125,0,0,0.0126953125,96.6240234375,0)" xlink:href="#bF"/><use transform="matrix(0.0126953125,0,0,0.0126953125,119.3994140625,0)" xlink:href="#aU"/></g><use transform="matrix(0.0126953125,0,0,0.0126953125,0,0)" xlink:href="#aU" id="B"/><path d="M157-1118h181V80c1 225-123 350-364 338V252c126 9 184-48 183-172v-1198zm91-183c-68 0-125-53-125-119s57-119 125-119c69 0 126 53 126 119s-57 119-126 119" id="bG"/><use transform="matrix(0.0126953125,0,0,0.0126953125,0,0)" xlink:href="#bG" id="C"/><path d="M628 24c-324 0-524-230-524-574 0-343 198-582 503-582 237 0 487 146 487 559v75H286c9 234 145 362 343 362 132 0 231-58 273-172l174 48C1024-91 857 24 628 24zM287-650h624c-17-190-120-322-304-322-192 0-309 151-320 322" id="bH"/><g id="D"><use transform="matrix(0.0126953125,0,0,0.0126953125,0,0)" xlink:href="#bH"/><use transform="matrix(0.0126953125,0,0,0.0126953125,15.158203125,0)" xlink:href="#by"/></g><g id="E"><use transform="matrix(0.0126953125,0,0,0.0126953125,0,0)" xlink:href="#aS"/><use transform="matrix(0.0126953125,0,0,0.0126953125,15.3740234375,0)" xlink:href="#by"/></g><g id="F"><use transform="matrix(0.0126953125,0,0,0.0126953125,0,0)" xlink:href="#by"/><use transform="matrix(0.0126953125,0,0,0.0126953125,15.361328125,0)" xlink:href="#aS"/><use transform="matrix(0.0126953125,0,0,0.0126953125,30.7353515625,0)" xlink:href="#bF"/><use transform="matrix(0.0126953125,0,0,0.0126953125,53.5107421875,0)" xlink:href="#bH"/><use transform="matrix(0.0126953125,0,0,0.0126953125,68.6689453125,0)" xlink:href="#bE"/><use transform="matrix(0.0126953125,0,0,0.0126953125,78.025390625,0)" xlink:href="#aQ"/></g><path d="M128 359l88-567h206L266 359H128" id="bI"/><use transform="matrix(0.0126953125,0,0,0.0126953125,0,0)" xlink:href="#bI" id="G"/><g id="H"><use transform="matrix(0.0126953125,0,0,0.0126953125,0,0)" xlink:href="#aT"/><use transform="matrix(0.0126953125,0,0,0.0126953125,16.173828125,0)" xlink:href="#aU"/><use transform="matrix(0.0126953125,0,0,0.0126953125,30.7734375,0)" xlink:href="#bE"/><use transform="matrix(0.0126953125,0,0,0.0126953125,40.5615234375,0)" xlink:href="#aU"/></g><g id="I"><use transform="matrix(0.0126953125,0,0,0.0126953125,0,0)" xlink:href="#aU"/><use transform="matrix(0.0126953125,0,0,0.0126953125,14.599609375,0)" xlink:href="#bB"/><use transform="matrix(0.0126953125,0,0,0.0126953125,28.3232421875,0)" xlink:href="#bz"/><use transform="matrix(0.0126953125,0,0,0.0126953125,34.6201171875,0)" xlink:href="#bC"/><use transform="matrix(0.0126953125,0,0,0.0126953125,50.5654296875,0)" xlink:href="#by"/><use transform="matrix(0.0126953125,0,0,0.0126953125,65.9267578125,0)" xlink:href="#aU"/><use transform="matrix(0.0126953125,0,0,0.0126953125,80.5263671875,0)" xlink:href="#bE"/><use transform="matrix(0.0126953125,0,0,0.0126953125,90.720703125,0)" xlink:href="#bw"/><use transform="matrix(0.0126953125,0,0,0.0126953125,97.017578125,0)" xlink:href="#bH"/></g><g id="J"><use transform="matrix(0.0126953125,0,0,0.0126953125,0,0)" xlink:href="#aT"/><use transform="matrix(0.0126953125,0,0,0.0126953125,15.919921875,0)" xlink:href="#aQ"/><use transform="matrix(0.0126953125,0,0,0.0126953125,31.509765625,0)" xlink:href="#bB"/><use transform="matrix(0.0126953125,0,0,0.0126953125,45.2333984375,0)" xlink:href="#bz"/><use transform="matrix(0.0126953125,0,0,0.0126953125,51.5302734375,0)" xlink:href="#aR"/><use transform="matrix(0.0126953125,0,0,0.0126953125,66.3837890625,0)" xlink:href="#bz"/><use transform="matrix(0.0126953125,0,0,0.0126953125,72.6806640625,0)" xlink:href="#aQ"/><use transform="matrix(0.0126953125,0,0,0.0126953125,88.2705078125,0)" xlink:href="#by"/></g><path d="M226 279v-1860h398v153H398V126h226v153H226" id="bJ"/><path d="M123 279V126h226v-1554H123v-153h398V279H123" id="bK"/><g id="K"><use transform="matrix(0.0126953125,0,0,0.0126953125,0,0)" xlink:href="#br"/><use transform="matrix(0.0126953125,0,0,0.0126953125,19.322265625,0)" xlink:href="#aZ"/><use transform="matrix(0.0126953125,0,0,0.0126953125,37.2607421875,0)" xlink:href="#bs"/><use transform="matrix(0.0126953125,0,0,0.0126953125,53.9423828125,0)" xlink:href="#br"/><use transform="matrix(0.0126953125,0,0,0.0126953125,73.2646484375,0)" xlink:href="#bJ"/><use transform="matrix(0.0126953125,0,0,0.0126953125,82.748046875,0)" xlink:href="#aW"/><use transform="matrix(0.0126953125,0,0,0.0126953125,99.48046875,0)" xlink:href="#bK"/></g><use transform="matrix(0.0126953125,0,0,0.0126953125,0,0)" xlink:href="#bp" id="L"/><use transform="matrix(0.0126953125,0,0,0.0126953125,0,0)" xlink:href="#aW" id="N"/><use transform="matrix(0.0126953125,0,0,0.0126953125,0,0)" xlink:href="#bq" id="O"/><g id="P"><use transform="matrix(0.0126953125,0,0,0.0126953125,0,0)" xlink:href="#bp"/><use transform="matrix(0.0126953125,0,0,0.0126953125,17.2021484375,0)" xlink:href="#bo"/></g><path d="M180 0v-1490h270l367 940c28 72 75 218 110 339 35-117 81-264 110-339l362-940h271V0h-187c2-448-5-837 7-1287-157 497-311 829-483 1287H842C666-458 514-784 354-1284c12 438 5 843 7 1284H180" id="bL"/><g id="Q"><use transform="matrix(0.0126953125,0,0,0.0126953125,0,0)" xlink:href="#bc"/><use transform="matrix(0.0126953125,0,0,0.0126953125,18.9921875,0)" xlink:href="#aY"/><use transform="matrix(0.0126953125,0,0,0.0126953125,38.873046875,0)" xlink:href="#bL"/><use transform="matrix(0.0126953125,0,0,0.0126953125,62.359375,0)" xlink:href="#aY"/></g><use transform="matrix(0.0126953125,0,0,0.0126953125,0,0)" xlink:href="#bh" id="R"/><g id="S"><use transform="matrix(0.0126953125,0,0,0.0126953125,0,0)" xlink:href="#bf"/><use transform="matrix(0.0126953125,0,0,0.0126953125,15.7294921875,0)" xlink:href="#aZ"/></g><path d="M180 0v-1490h908v168H370v486h669v168H370v500h727V0H180" id="bM"/><path d="M98-1322v-168h1126v168H757V0H567v-1322H98" id="bN"/><g id="T"><use transform="matrix(0.0126953125,0,0,0.0126953125,0,0)" xlink:href="#bM"/><use transform="matrix(0.0126953125,0,0,0.0126953125,15.6279296875,0)" xlink:href="#bs"/><use transform="matrix(0.0126953125,0,0,0.0126953125,32.3095703125,0)" xlink:href="#bN"/><use transform="matrix(0.0126953125,0,0,0.0126953125,46.8837890625,0)" xlink:href="#aZ"/></g><path d="M180 0v-1490h224l606 953c40 63 108 177 176 312-27-437-7-821-13-1265h190V0h-226C860-448 622-778 356-1262c27 476 11 792 15 1262H180" id="bO"/><g id="U"><use transform="matrix(0.0126953125,0,0,0.0126953125,0,0)" xlink:href="#bM"/><use transform="matrix(0.0126953125,0,0,0.0126953125,15.6279296875,0)" xlink:href="#bO"/></g><use transform="matrix(0.0126953125,0,0,0.0126953125,0,0)" xlink:href="#bo" id="V"/><g id="W"><use transform="matrix(0.0126953125,0,0,0.0126953125,0,0)" xlink:href="#bs"/><use transform="matrix(0.0126953125,0,0,0.0126953125,16.681640625,0)" xlink:href="#bM"/></g><g id="X"><use transform="matrix(0.0126953125,0,0,0.0126953125,0,0)" xlink:href="#bL"/><use transform="matrix(0.0126953125,0,0,0.0126953125,23.486328125,0)" xlink:href="#aY"/><use transform="matrix(0.0126953125,0,0,0.0126953125,42.4912109375,0)" xlink:href="#bb"/><use transform="matrix(0.0126953125,0,0,0.0126953125,60.4296875,0)" xlink:href="#bM"/><use transform="matrix(0.0126953125,0,0,0.0126953125,76.0576171875,0)" xlink:href="#aW"/><use transform="matrix(0.0126953125,0,0,0.0126953125,92.7900390625,0)" xlink:href="#aZ"/></g><path d="M180 0v-1490h190v1322h690V0H180" id="bP"/><g id="Y"><use transform="matrix(0.0126953125,0,0,0.0126953125,0,0)" xlink:href="#aZ"/><use transform="matrix(0.0126953125,0,0,0.0126953125,17.9384765625,0)" xlink:href="#bP"/></g><path d="M789 20c-398 0-667-293-667-764 0-473 273-766 655-766 315 0 558 198 612 487h-196c-61-191-204-311-415-311-262 0-471 207-471 590 0 380 208 588 482 588 249 0 420-165 425-427H828v-166h572v163c0 370-256 606-611 606" id="bQ"/><g id="Z"><use transform="matrix(0.0126953125,0,0,0.0126953125,0,0)" xlink:href="#bs"/><use transform="matrix(0.0126953125,0,0,0.0126953125,16.681640625,0)" xlink:href="#bd"/><use transform="matrix(0.0126953125,0,0,0.0126953125,23.6640625,0)" xlink:href="#bQ"/><use transform="matrix(0.0126953125,0,0,0.0126953125,43.0625,0)" xlink:href="#be"/><use transform="matrix(0.0126953125,0,0,0.0126953125,62.41015625,0)" xlink:href="#bd"/><use transform="matrix(0.0126953125,0,0,0.0126953125,69.392578125,0)" xlink:href="#bM"/><use transform="matrix(0.0126953125,0,0,0.0126953125,85.0205078125,0)" xlink:href="#bO"/><use transform="matrix(0.0126953125,0,0,0.0126953125,104.609375,0)" xlink:href="#bN"/><use transform="matrix(0.0126953125,0,0,0.0126953125,121.392578125,0)" xlink:href="#bM"/></g><g id="aa"><use transform="matrix(0.0126953125,0,0,0.0126953125,0,0)" xlink:href="#bP"/><use transform="matrix(0.0126953125,0,0,0.0126953125,14.701171875,0)" xlink:href="#be"/><use transform="matrix(0.0126953125,0,0,0.0126953125,34.048828125,0)" xlink:href="#bQ"/><use transform="matrix(0.0126953125,0,0,0.0126953125,52.86328125,0)" xlink:href="#aZ"/><use transform="matrix(0.0126953125,0,0,0.0126953125,70.8017578125,0)" xlink:href="#aW"/></g><g id="ab"><use transform="matrix(0.0126953125,0,0,0.0126953125,0,0)" xlink:href="#bb"/><use transform="matrix(0.0126953125,0,0,0.0126953125,16.1611328125,0)" xlink:href="#aZ"/><use transform="matrix(0.0126953125,0,0,0.0126953125,33.2109375,0)" xlink:href="#bc"/><use transform="matrix(0.0126953125,0,0,0.0126953125,52.203125,0)" xlink:href="#bd"/><use transform="matrix(0.0126953125,0,0,0.0126953125,59.185546875,0)" xlink:href="#aY"/></g><g id="ac"><use transform="matrix(0.0126953125,0,0,0.0126953125,0,0)" xlink:href="#bd"/><use transform="matrix(0.0126953125,0,0,0.0126953125,6.982421875,0)" xlink:href="#bO"/><use transform="matrix(0.0126953125,0,0,0.0126953125,26.5712890625,0)" xlink:href="#bL"/><use transform="matrix(0.0126953125,0,0,0.0126953125,50.0576171875,0)" xlink:href="#bM"/><use transform="matrix(0.0126953125,0,0,0.0126953125,65.685546875,0)" xlink:href="#ba"/><use transform="matrix(0.0126953125,0,0,0.0126953125,84.44921875,0)" xlink:href="#bd"/><use transform="matrix(0.0126953125,0,0,0.0126953125,91.431640625,0)" xlink:href="#aZ"/><use transform="matrix(0.0126953125,0,0,0.0126953125,107.1611328125,0)" xlink:href="#bN"/><use transform="matrix(0.0126953125,0,0,0.0126953125,123.169921875,0)" xlink:href="#aY"/></g><use transform="matrix(0.0126953125,0,0,0.0126953125,0,0)" xlink:href="#bf" id="ad"/><g id="ae"><use transform="matrix(0.0126953125,0,0,0.0126953125,0,0)" xlink:href="#bs"/><use transform="matrix(0.0126953125,0,0,0.0126953125,16.681640625,0)" xlink:href="#bd"/></g><g id="af"><use transform="matrix(0.0126953125,0,0,0.0126953125,0,0)" xlink:href="#bP"/><use transform="matrix(0.0126953125,0,0,0.0126953125,13.96484375,0)" xlink:href="#aY"/></g><g id="ag"><use transform="matrix(0.0126953125,0,0,0.0126953125,0,0)" xlink:href="#ba"/><use transform="matrix(0.0126953125,0,0,0.0126953125,18.763671875,0)" xlink:href="#bM"/><use transform="matrix(0.0126953125,0,0,0.0126953125,34.3916015625,0)" xlink:href="#bs"/><use transform="matrix(0.0126953125,0,0,0.0126953125,51.0732421875,0)" xlink:href="#bM"/><use transform="matrix(0.0126953125,0,0,0.0126953125,66.701171875,0)" xlink:href="#aZ"/></g><g id="ah"><use transform="matrix(0.0126953125,0,0,0.0126953125,0,0)" xlink:href="#aX"/><use transform="matrix(0.0126953125,0,0,0.0126953125,17.01171875,0)" xlink:href="#be"/><use transform="matrix(0.0126953125,0,0,0.0126953125,36.359375,0)" xlink:href="#bs"/><use transform="matrix(0.0126953125,0,0,0.0126953125,53.041015625,0)" xlink:href="#bc"/><use transform="matrix(0.0126953125,0,0,0.0126953125,71.525390625,0)" xlink:href="#aZ"/><use transform="matrix(0.0126953125,0,0,0.0126953125,89.4638671875,0)" xlink:href="#aW"/></g><path d="M130 0v-134l666-991c45-67 96-135 147-202-269 9-546 3-821 5v-168h1036v136L502-379c-49 72-103 145-157 216 268-9 546-3 821-5V0H130" id="bR"/><g id="ai"><use transform="matrix(0.0126953125,0,0,0.0126953125,0,0)" xlink:href="#bM"/><use transform="matrix(0.0126953125,0,0,0.0126953125,15.6279296875,0)" xlink:href="#bL"/><use transform="matrix(0.0126953125,0,0,0.0126953125,39.1142578125,0)" xlink:href="#bg"/><use transform="matrix(0.0126953125,0,0,0.0126953125,55.7197265625,0)" xlink:href="#bM"/><use transform="matrix(0.0126953125,0,0,0.0126953125,71.34765625,0)" xlink:href="#bR"/><use transform="matrix(0.0126953125,0,0,0.0126953125,87.69921875,0)" xlink:href="#aZ"/><use transform="matrix(0.0126953125,0,0,0.0126953125,105.6376953125,0)" xlink:href="#aW"/><use transform="matrix(0.0126953125,0,0,0.0126953125,122.3701171875,0)" xlink:href="#aZ"/></g><g id="aj"><use transform="matrix(0.0126953125,0,0,0.0126953125,0,0)" xlink:href="#ba"/><use transform="matrix(0.0126953125,0,0,0.0126953125,18.763671875,0)" xlink:href="#bM"/><use transform="matrix(0.0126953125,0,0,0.0126953125,34.3916015625,0)" xlink:href="#bs"/><use transform="matrix(0.0126953125,0,0,0.0126953125,51.0732421875,0)" xlink:href="#ba"/><use transform="matrix(0.0126953125,0,0,0.0126953125,69.8369140625,0)" xlink:href="#bM"/></g><g id="ak"><use transform="matrix(0.0126953125,0,0,0.0126953125,0,0)" xlink:href="#br"/><use transform="matrix(0.0126953125,0,0,0.0126953125,19.322265625,0)" xlink:href="#aZ"/><use transform="matrix(0.0126953125,0,0,0.0126953125,37.2607421875,0)" xlink:href="#bs"/><use transform="matrix(0.0126953125,0,0,0.0126953125,53.9423828125,0)" xlink:href="#bN"/><use transform="matrix(0.0126953125,0,0,0.0126953125,68.5166015625,0)" xlink:href="#aZ"/></g><g id="al"><use transform="matrix(0.0126953125,0,0,0.0126953125,0,0)" xlink:href="#bM"/><use transform="matrix(0.0126953125,0,0,0.0126953125,15.6279296875,0)" xlink:href="#bO"/><use transform="matrix(0.0126953125,0,0,0.0126953125,35.216796875,0)" xlink:href="#bc"/><use transform="matrix(0.0126953125,0,0,0.0126953125,54.208984375,0)" xlink:href="#aY"/><use transform="matrix(0.0126953125,0,0,0.0126953125,74.08984375,0)" xlink:href="#bO"/><use transform="matrix(0.0126953125,0,0,0.0126953125,93.6787109375,0)" xlink:href="#bN"/><use transform="matrix(0.0126953125,0,0,0.0126953125,110.4619140625,0)" xlink:href="#aW"/><use transform="matrix(0.0126953125,0,0,0.0126953125,127.1943359375,0)" xlink:href="#aZ"/><use transform="matrix(0.0126953125,0,0,0.0126953125,145.1328125,0)" xlink:href="#aW"/></g><g id="am"><use transform="matrix(0.0126953125,0,0,0.0126953125,0,0)" xlink:href="#be"/><use transform="matrix(0.0126953125,0,0,0.0126953125,19.34765625,0)" xlink:href="#bO"/></g><use transform="matrix(0.0126953125,0,0,0.0126953125,0,0)" xlink:href="#aY" id="an"/><use transform="matrix(0.0126953125,0,0,0.0126953125,0,0)" xlink:href="#aW" id="ao"/><use transform="matrix(0.0126953125,0,0,0.0126953125,0,0)" xlink:href="#bf" id="ap"/><use transform="matrix(0.0126953125,0,0,0.0126953125,0,0)" xlink:href="#bm" id="aq"/><g id="ar"><use transform="matrix(0.0126953125,0,0,0.0126953125,0,0)" xlink:href="#bd"/><use transform="matrix(0.0126953125,0,0,0.0126953125,6.982421875,0)" xlink:href="#bO"/><use transform="matrix(0.0126953125,0,0,0.0126953125,26.5712890625,0)" xlink:href="#bs"/><use transform="matrix(0.0126953125,0,0,0.0126953125,43.2529296875,0)" xlink:href="#bM"/><use transform="matrix(0.0126953125,0,0,0.0126953125,58.880859375,0)" xlink:href="#aW"/><use transform="matrix(0.0126953125,0,0,0.0126953125,75.61328125,0)" xlink:href="#bN"/><use transform="matrix(0.0126953125,0,0,0.0126953125,90.1875,0)" xlink:href="#aZ"/></g><g id="as"><use transform="matrix(0.0126953125,0,0,0.0126953125,0,0)" xlink:href="#aZ"/><use transform="matrix(0.0126953125,0,0,0.0126953125,17.9384765625,0)" xlink:href="#br"/><use transform="matrix(0.0126953125,0,0,0.0126953125,37.2607421875,0)" xlink:href="#bd"/></g><g id="at"><use transform="matrix(0.0126953125,0,0,0.0126953125,0,0)" xlink:href="#bc"/><use transform="matrix(0.0126953125,0,0,0.0126953125,18.9921875,0)" xlink:href="#aY"/><use transform="matrix(0.0126953125,0,0,0.0126953125,38.873046875,0)" xlink:href="#bL"/><use transform="matrix(0.0126953125,0,0,0.0126953125,62.359375,0)" xlink:href="#aY"/></g><g id="au"><use transform="matrix(0.0126953125,0,0,0.0126953125,0,0)" xlink:href="#bO"/><use transform="matrix(0.0126953125,0,0,0.0126953125,19.5888671875,0)" xlink:href="#aY"/></g><g id="av"><use transform="matrix(0.0126953125,0,0,0.0126953125,0,0)" xlink:href="#aY"/><use transform="matrix(0.0126953125,0,0,0.0126953125,19.880859375,0)" xlink:href="#bc"/><use transform="matrix(0.0126953125,0,0,0.0126953125,38.873046875,0)" xlink:href="#be"/><use transform="matrix(0.0126953125,0,0,0.0126953125,58.220703125,0)" xlink:href="#bg"/><use transform="matrix(0.0126953125,0,0,0.0126953125,72.9091796875,0)" xlink:href="#aZ"/><use transform="matrix(0.0126953125,0,0,0.0126953125,90.84765625,0)" xlink:href="#ba"/><use transform="matrix(0.0126953125,0,0,0.0126953125,109.611328125,0)" xlink:href="#aY"/></g><g id="aw"><use transform="matrix(0.0126953125,0,0,0.0126953125,0,0)" xlink:href="#bO"/><use transform="matrix(0.0126953125,0,0,0.0126953125,19.5888671875,0)" xlink:href="#aY"/></g><g id="ax"><use transform="matrix(0.0126953125,0,0,0.0126953125,0,0)" xlink:href="#aX"/><use transform="matrix(0.0126953125,0,0,0.0126953125,17.01171875,0)" xlink:href="#be"/><use transform="matrix(0.0126953125,0,0,0.0126953125,36.359375,0)" xlink:href="#bs"/><use transform="matrix(0.0126953125,0,0,0.0126953125,53.041015625,0)" xlink:href="#bc"/><use transform="matrix(0.0126953125,0,0,0.0126953125,71.525390625,0)" xlink:href="#aZ"/></g><g id="ay"><use transform="matrix(0.0126953125,0,0,0.0126953125,0,0)" xlink:href="#aY"/><use transform="matrix(0.0126953125,0,0,0.0126953125,19.1064453125,0)" xlink:href="#bN"/><use transform="matrix(0.0126953125,0,0,0.0126953125,35.8896484375,0)" xlink:href="#aW"/><use transform="matrix(0.0126953125,0,0,0.0126953125,52.6220703125,0)" xlink:href="#aZ"/></g><g id="az"><use transform="matrix(0.0126953125,0,0,0.0126953125,0,0)" xlink:href="#bg"/><use transform="matrix(0.0126953125,0,0,0.0126953125,16.60546875,0)" xlink:href="#aY"/><use transform="matrix(0.0126953125,0,0,0.0126953125,36.486328125,0)" xlink:href="#bs"/><use transform="matrix(0.0126953125,0,0,0.0126953125,53.16796875,0)" xlink:href="#bd"/><use transform="matrix(0.0126953125,0,0,0.0126953125,60.150390625,0)" xlink:href="#bc"/><use transform="matrix(0.0126953125,0,0,0.0126953125,79.142578125,0)" xlink:href="#bd"/><use transform="matrix(0.0126953125,0,0,0.0126953125,86.125,0)" xlink:href="#aY"/><use transform="matrix(0.0126953125,0,0,0.0126953125,106.005859375,0)" xlink:href="#bO"/></g><g id="aA"><use transform="matrix(0.0126953125,0,0,0.0126953125,0,0)" xlink:href="#bM"/><use transform="matrix(0.0126953125,0,0,0.0126953125,15.6279296875,0)" xlink:href="#bO"/></g><g id="aB"><use transform="matrix(0.0126953125,0,0,0.0126953125,0,0)" xlink:href="#ba"/><use transform="matrix(0.0126953125,0,0,0.0126953125,18.763671875,0)" xlink:href="#aY"/><use transform="matrix(0.0126953125,0,0,0.0126953125,38.64453125,0)" xlink:href="#bO"/><use transform="matrix(0.0126953125,0,0,0.0126953125,58.2333984375,0)" xlink:href="#ba"/><use transform="matrix(0.0126953125,0,0,0.0126953125,76.9970703125,0)" xlink:href="#bM"/></g><g id="aC"><use transform="matrix(0.0126953125,0,0,0.0126953125,0,0)" xlink:href="#bL"/><use transform="matrix(0.0126953125,0,0,0.0126953125,23.486328125,0)" xlink:href="#aZ"/><use transform="matrix(0.0126953125,0,0,0.0126953125,41.4248046875,0)" xlink:href="#aW"/><use transform="matrix(0.0126953125,0,0,0.0126953125,58.1572265625,0)" xlink:href="#bc"/><use transform="matrix(0.0126953125,0,0,0.0126953125,76.6416015625,0)" xlink:href="#aZ"/></g><g id="aD"><use transform="matrix(0.0126953125,0,0,0.0126953125,0,0)" xlink:href="#aX"/><use transform="matrix(0.0126953125,0,0,0.0126953125,17.01171875,0)" xlink:href="#aY"/><use transform="matrix(0.0126953125,0,0,0.0126953125,36.892578125,0)" xlink:href="#aW"/><use transform="matrix(0.0126953125,0,0,0.0126953125,53.625,0)" xlink:href="#aW"/><use transform="matrix(0.0126953125,0,0,0.0126953125,70.357421875,0)" xlink:href="#aZ"/><use transform="matrix(0.0126953125,0,0,0.0126953125,88.2958984375,0)" xlink:href="#ba"/><use transform="matrix(0.0126953125,0,0,0.0126953125,107.0595703125,0)" xlink:href="#aY"/></g><g id="aE"><use transform="matrix(0.0126953125,0,0,0.0126953125,0,0)" xlink:href="#aZ"/><use transform="matrix(0.0126953125,0,0,0.0126953125,17.9384765625,0)" xlink:href="#bP"/><use transform="matrix(0.0126953125,0,0,0.0126953125,31.9033203125,0)" xlink:href="#bQ"/><use transform="matrix(0.0126953125,0,0,0.0126953125,51.3017578125,0)" xlink:href="#be"/><use transform="matrix(0.0126953125,0,0,0.0126953125,70.6494140625,0)" xlink:href="#bO"/></g><g id="aF"><use transform="matrix(0.0126953125,0,0,0.0126953125,0,0)" xlink:href="#bL"/><use transform="matrix(0.0126953125,0,0,0.0126953125,23.486328125,0)" xlink:href="#aY"/><use transform="matrix(0.0126953125,0,0,0.0126953125,43.3671875,0)" xlink:href="#bL"/><use transform="matrix(0.0126953125,0,0,0.0126953125,66.853515625,0)" xlink:href="#bM"/><use transform="matrix(0.0126953125,0,0,0.0126953125,82.4814453125,0)" xlink:href="#bO"/><use transform="matrix(0.0126953125,0,0,0.0126953125,102.0703125,0)" xlink:href="#bN"/><use transform="matrix(0.0126953125,0,0,0.0126953125,118.0791015625,0)" xlink:href="#aY"/></g><g id="aG"><use transform="matrix(0.0126953125,0,0,0.0126953125,0,0)" xlink:href="#br"/><use transform="matrix(0.0126953125,0,0,0.0126953125,19.322265625,0)" xlink:href="#be"/><use transform="matrix(0.0126953125,0,0,0.0126953125,38.669921875,0)" xlink:href="#aX"/><use transform="matrix(0.0126953125,0,0,0.0126953125,55.681640625,0)" xlink:href="#aY"/></g><g id="aH"><use transform="matrix(0.0126953125,0,0,0.0126953125,0,0)" xlink:href="#aZ"/><use transform="matrix(0.0126953125,0,0,0.0126953125,17.9384765625,0)" xlink:href="#bP"/><use transform="matrix(0.0126953125,0,0,0.0126953125,31.9033203125,0)" xlink:href="#bQ"/><use transform="matrix(0.0126953125,0,0,0.0126953125,51.3017578125,0)" xlink:href="#be"/><use transform="matrix(0.0126953125,0,0,0.0126953125,70.6494140625,0)" xlink:href="#bO"/></g><g id="aI"><use transform="matrix(0.0126953125,0,0,0.0126953125,0,0)" xlink:href="#bb"/><use transform="matrix(0.0126953125,0,0,0.0126953125,16.1611328125,0)" xlink:href="#aZ"/><use transform="matrix(0.0126953125,0,0,0.0126953125,34.099609375,0)" xlink:href="#bP"/><use transform="matrix(0.0126953125,0,0,0.0126953125,48.064453125,0)" xlink:href="#aY"/><use transform="matrix(0.0126953125,0,0,0.0126953125,67.9453125,0)" xlink:href="#aW"/></g><path d="M784 20c-382 0-662-292-662-764 0-473 280-766 662-766s660 293 660 766c0 282-99 499-260 629l192 255h-198L1049-33C969 2 880 20 784 20zm-62-486h198l156 205c112-98 183-261 183-483 0-383-209-590-475-590-268 0-477 208-477 590 0 380 209 588 477 588 54 0 106-9 154-25" id="bS"/><g id="aJ"><use transform="matrix(0.0126953125,0,0,0.0126953125,0,0)" xlink:href="#bS"/><use transform="matrix(0.0126953125,0,0,0.0126953125,19.880859375,0)" xlink:href="#be"/><use transform="matrix(0.0126953125,0,0,0.0126953125,39.228515625,0)" xlink:href="#bM"/></g><g id="aK"><use transform="matrix(0.0126953125,0,0,0.0126953125,0,0)" xlink:href="#bs"/><use transform="matrix(0.0126953125,0,0,0.0126953125,16.681640625,0)" xlink:href="#bM"/></g><g id="aL"><use transform="matrix(0.0126953125,0,0,0.0126953125,0,0)" xlink:href="#bP"/><use transform="matrix(0.0126953125,0,0,0.0126953125,14.701171875,0)" xlink:href="#bM"/></g><g id="aM"><use transform="matrix(0.0126953125,0,0,0.0126953125,0,0)" xlink:href="#bM"/><use transform="matrix(0.0126953125,0,0,0.0126953125,15.6279296875,0)" xlink:href="#bP"/><use transform="matrix(0.0126953125,0,0,0.0126953125,30.3291015625,0)" xlink:href="#bd"/><use transform="matrix(0.0126953125,0,0,0.0126953125,37.3115234375,0)" xlink:href="#bL"/><use transform="matrix(0.0126953125,0,0,0.0126953125,60.7978515625,0)" xlink:href="#bd"/><use transform="matrix(0.0126953125,0,0,0.0126953125,67.7802734375,0)" xlink:href="#bO"/><use transform="matrix(0.0126953125,0,0,0.0126953125,87.369140625,0)" xlink:href="#aY"/></g><g id="aN"><use transform="matrix(0.0126953125,0,0,0.0126953125,0,0)" xlink:href="#aZ"/><use transform="matrix(0.0126953125,0,0,0.0126953125,16.1611328125,0)" xlink:href="#bb"/><use transform="matrix(0.0126953125,0,0,0.0126953125,34.099609375,0)" xlink:href="#bM"/><use transform="matrix(0.0126953125,0,0,0.0126953125,49.7275390625,0)" xlink:href="#bc"/><use transform="matrix(0.0126953125,0,0,0.0126953125,68.7197265625,0)" xlink:href="#bM"/><use transform="matrix(0.0126953125,0,0,0.0126953125,84.34765625,0)" xlink:href="#bs"/></g><g id="aO"><use transform="matrix(0.0126953125,0,0,0.0126953125,0,0)" xlink:href="#bP"/><use transform="matrix(0.0126953125,0,0,0.0126953125,14.701171875,0)" xlink:href="#bP"/><use transform="matrix(0.0126953125,0,0,0.0126953125,29.40234375,0)" xlink:href="#aZ"/><use transform="matrix(0.0126953125,0,0,0.0126953125,47.3408203125,0)" xlink:href="#bL"/><use transform="matrix(0.0126953125,0,0,0.0126953125,70.8271484375,0)" xlink:href="#aZ"/></g><path d="M232-923l-22-567h194l-22 567H232zm340 0l-22-567h194l-22 567H572" id="bT"/><g id="aP"><use transform="matrix(0.0126953125,0,0,0.0126953125,0,0)" xlink:href="#bT"/><use transform="matrix(0.0126953125,0,0,0.0126953125,12.111328125,0)" xlink:href="#bN"/><use transform="matrix(0.0126953125,0,0,0.0126953125,28.89453125,0)" xlink:href="#be"/><use transform="matrix(0.0126953125,0,0,0.0126953125,48.2421875,0)" xlink:href="#bL"/><use transform="matrix(0.0126953125,0,0,0.0126953125,71.728515625,0)" xlink:href="#aX"/><use transform="matrix(0.0126953125,0,0,0.0126953125,88.740234375,0)" xlink:href="#aZ"/><use transform="matrix(0.0126953125,0,0,0.0126953125,104.6220703125,0)" xlink:href="#bT"/></g></defs></g></svg>