<svg xmlns="http://www.w3.org/2000/svg" xmlns:xlink="http://www.w3.org/1999/xlink" xmlns:lucid="lucid" width="1245.05" height="1297.48"><g transform="translate(1770.805874333791 430.1207233531849)" lucid:page-tab-id="0_0"><path d="M-2000-500h1500v1500h-1500z" fill="#f2f3f5"/><path d="M-1195.06-321.28a6 6 0 0 1 6-6h148a6 6 0 0 1 6 6v108a6 6 0 0 1-6 6h-148a6 6 0 0 1-6-6z" stroke="#000" stroke-width="2" fill="#fff"/><use xlink:href="#a" transform="matrix(1,0,0,1,-1190.062314959365,-322.2828233111128) translate(71.2548828125 63)"/><path d="M-1025.63-321.28a6 6 0 0 1 6-6h148a6 6 0 0 1 6 6v108a6 6 0 0 1-6 6h-148a6 6 0 0 1-6-6z" stroke="#000" stroke-width="2" fill="#fff"/><use xlink:href="#a" transform="matrix(1,0,0,1,-1020.6278792999117,-322.2828233111128) translate(71.2548828125 63)"/><path d="M-686.76-321.28a6 6 0 0 1 6-6h148a6 6 0 0 1 6 6v108a6 6 0 0 1-6 6h-148a6 6 0 0 1-6-6z" stroke="#000" stroke-width="2" fill="#fff"/><use xlink:href="#a" transform="matrix(1,0,0,1,-681.759007981005,-322.2828233111128) translate(71.2548828125 63)"/><path d="M-856.2-321.28a6 6 0 0 1 6-6h148a6 6 0 0 1 6 6v108a6 6 0 0 1-6 6h-148a6 6 0 0 1-6-6z" stroke="#000" stroke-width="2" fill="#fff"/><use xlink:href="#a" transform="matrix(1,0,0,1,-851.1934436404583,-322.2828233111128) translate(71.2548828125 63)"/><path d="M-1072.83-384.85c0 24.46-18.9 44.28-42.23 44.28s-42.24-19.82-42.24-44.28c0-24.45 18.9-44.27 42.24-44.27 23.32 0 42.23 19.82 42.23 44.27z" stroke="#000" stroke-width="2" fill="#fff"/><use xlink:href="#b" transform="matrix(1,0,0,1,-1152.2968082159928,-424.1207233531849) translate(29.298828125 49.875)"/><path d="M-908.05-381.6c0 24.45-18.9 44.28-42.24 44.28-23.32 0-42.22-19.83-42.22-44.28 0-24.45 18.9-44.28 42.23-44.28 23.34 0 42.25 19.83 42.25 44.28z" stroke="#000" stroke-width="2" fill="#fff"/><use xlink:href="#c" transform="matrix(1,0,0,1,-987.5243707314396,-420.8759049121843) translate(32.21240234375 49.875)"/><path d="M-743.28-379.56c0 24.45-18.9 44.28-42.24 44.28-23.32 0-42.23-19.83-42.23-44.28 0-24.45 18.9-44.27 42.23-44.27s42.24 19.82 42.24 44.27z" stroke="#000" stroke-width="2" fill="#fff"/><use xlink:href="#d" transform="matrix(1,0,0,1,-822.7519332468866,-418.83452616929935) translate(29.57177734375 49.875)"/><path d="M-565.68-381.6c0 24.45-18.9 44.28-42.24 44.28-23.32 0-42.23-19.83-42.23-44.28 0-24.45 18.9-44.28 42.23-44.28s42.24 19.83 42.24 44.28z" stroke="#000" stroke-width="2" fill="#fff"/><use xlink:href="#e" transform="matrix(1,0,0,1,-645.1519826158938,-420.8759049121843) translate(29.47021484375 49.875)"/><path d="M-1115.06-204.78v66.2" stroke="#3a414a" stroke-width="3" fill="none"/><path d="M-1113.6-204.74h-2.94v-1.54h2.95z" stroke="#3a414a" stroke-width=".05" fill="#3a414a"/><path d="M-1115.06-124.08l-7.5-13h15z" stroke="#3a414a" stroke-width="3" fill="#3a414a"/><path d="M-1179.75-114.08a6 6 0 0 1 6-6h117.38a6 6 0 0 1 6 6v73.3a6 6 0 0 1-6 6h-117.38a6 6 0 0 1-6-6z" stroke="#000" stroke-width="2" fill="#fff"/><use xlink:href="#f" transform="matrix(1,0,0,1,-1174.7519743877278,-115.08288090828779) translate(51.03076171875 46.5625)"/><path d="M-1115.06-32.3v60.9" stroke="#3a414a" stroke-width="3" fill="none"/><path d="M-1113.6-32.25h-2.94v-1.54h2.95z" stroke="#3a414a" stroke-width=".05" fill="#3a414a"/><path d="M-1115.06 43.1l-7.5-13h15z" stroke="#3a414a" stroke-width="3" fill="#3a414a"/><path d="M-1179.75 53.1a6 6 0 0 1 6-6h117.38a6 6 0 0 1 6 6v73.3a6 6 0 0 1-6 6h-117.38a6 6 0 0 1-6-6z" stroke="#000" stroke-width="2" fill="#fff"/><use xlink:href="#g" transform="matrix(1,0,0,1,-1174.7519743877278,52.08950309317345) translate(51.494140625 46.5625)"/><path d="M-1015.56-114.08a6 6 0 0 1 6-6h117.38a6 6 0 0 1 6 6v73.3a6 6 0 0 1-6 6h-117.38a6 6 0 0 1-6-6z" stroke="#000" stroke-width="2" fill="#fff"/><use xlink:href="#h" transform="matrix(1,0,0,1,-1010.5587775923044,-115.08288090828779) translate(25.83056640625 46.5625)"/><path d="M-846.12-114.08a6 6 0 0 1 6-6h117.38a6 6 0 0 1 6 6v73.3a6 6 0 0 1-6 6h-117.38a6 6 0 0 1-6-6z" stroke="#000" stroke-width="2" fill="#fff"/><use xlink:href="#i" transform="matrix(1,0,0,1,-841.1243419328514,-115.08288090828779) translate(51.6337890625 46.5625)"/><path d="M-781.43-32.3v53.73" stroke="#3a414a" stroke-width="3" fill="none"/><path d="M-779.96-32.25h-2.95v-1.54h2.94z" stroke="#3a414a" stroke-width=".05" fill="#3a414a"/><path d="M-781.43 35.92l-7.5-13h15z" stroke="#3a414a" stroke-width="3" fill="#3a414a"/><path d="M-850.2 55.35a6 6 0 0 1 6-6h117.37a6 6 0 0 1 6 6v73.3a6 6 0 0 1-6 6H-844.2a6 6 0 0 1-6-6z" stroke="#000" stroke-width="2" fill="#fff"/><use xlink:href="#j" transform="matrix(1,0,0,1,-845.2070994186214,54.35155475116517) translate(50.3388671875 46.5625)"/><path d="M-676.7-114.08a6 6 0 0 1 6-6h117.4a6 6 0 0 1 6 6v73.3a6 6 0 0 1-6 6h-117.4a6 6 0 0 1-6-6z" stroke="#000" stroke-width="2" fill="#fff"/><use xlink:href="#k" transform="matrix(1,0,0,1,-671.6899062733984,-115.08288090828779) translate(50.20556640625 46.5625)"/><path d="M-945.72-204.8l-4.07 66.26" stroke="#3a414a" stroke-width="3" fill="none"/><path d="M-944.25-204.66l-2.95-.18.1-1.44h2.95z" stroke="#3a414a" stroke-width=".05" fill="#3a414a"/><path d="M-950.68-124.08l-6.7-13.42 14.98.92z" stroke="#3a414a" stroke-width="3" fill="#3a414a"/><path d="M-776.3-204.8l-4.06 66.26" stroke="#3a414a" stroke-width="3" fill="none"/><path d="M-774.82-204.66l-2.94-.18.1-1.44h2.94z" stroke="#3a414a" stroke-width=".05" fill="#3a414a"/><path d="M-781.25-124.08l-6.7-13.42 14.98.92z" stroke="#3a414a" stroke-width="3" fill="#3a414a"/><path d="M-606.85-204.8l-4.08 66.26" stroke="#3a414a" stroke-width="3" fill="none"/><path d="M-605.38-204.66l-2.95-.18.1-1.44h2.95z" stroke="#3a414a" stroke-width=".05" fill="#3a414a"/><path d="M-611.82-124.08l-6.68-13.42 14.97.92z" stroke="#3a414a" stroke-width="3" fill="#3a414a"/><path d="M-1753.35-263.9a6 6 0 0 1 6-6h373.52a6 6 0 0 1 6 6v29.47a6 6 0 0 1-6 6h-373.52a6 6 0 0 1-6-6z" fill="none"/><use xlink:href="#l" transform="matrix(1,0,0,1,-1748.3464278631886,-264.90134624259497) translate(0 25.4580078125)"/><use xlink:href="#m" transform="matrix(1,0,0,1,-1748.3464278631886,-264.90134624259497) translate(99.2265625 25.4580078125)"/><use xlink:href="#n" transform="matrix(1,0,0,1,-1748.3464278631886,-264.90134624259497) translate(228.5791015625 25.4580078125)"/><use xlink:href="#o" transform="matrix(1,0,0,1,-1748.3464278631886,-264.90134624259497) translate(268.53125 25.4580078125)"/><use xlink:href="#p" transform="matrix(1,0,0,1,-1748.3464278631886,-264.90134624259497) translate(358.76953125 25.4580078125)"/><path d="M-1690.06-122.32a6 6 0 0 1 6-6H-1402a6 6 0 0 1 6 6v104.97a6 6 0 0 1-6 6h-282.06a6 6 0 0 1-6-6z" fill="none"/><use xlink:href="#q" transform="matrix(1,0,0,1,-1685.063686833791,-123.32208498308358) translate(0 25.207226562500004)"/><use xlink:href="#r" transform="matrix(1,0,0,1,-1685.063686833791,-123.32208498308358) translate(37.78125 25.207226562500004)"/><use xlink:href="#s" transform="matrix(1,0,0,1,-1685.063686833791,-123.32208498308358) translate(164.8232421875 25.207226562500004)"/><use xlink:href="#t" transform="matrix(1,0,0,1,-1685.063686833791,-123.32208498308358) translate(0 62.9580078125)"/><use xlink:href="#u" transform="matrix(1,0,0,1,-1685.063686833791,-123.32208498308358) translate(46.4267578125 62.9580078125)"/><use xlink:href="#v" transform="matrix(1,0,0,1,-1685.063686833791,-123.32208498308358) translate(114.10546875 62.9580078125)"/><use xlink:href="#w" transform="matrix(1,0,0,1,-1685.063686833791,-123.32208498308358) translate(176.2744140625 62.9580078125)"/><use xlink:href="#x" transform="matrix(1,0,0,1,-1685.063686833791,-123.32208498308358) translate(248.4091796875 62.9580078125)"/><use xlink:href="#y" transform="matrix(1,0,0,1,-1685.063686833791,-123.32208498308358) translate(0 100.70878906249999)"/><use xlink:href="#z" transform="matrix(1,0,0,1,-1685.063686833791,-123.32208498308358) translate(39.9521484375 100.70878906249999)"/><use xlink:href="#A" transform="matrix(1,0,0,1,-1685.063686833791,-123.32208498308358) translate(172.859375 100.70878906249999)"/><path d="M-1560.6-226.93v81.12" stroke="#3a414a" stroke-width="3" fill="none"/><path d="M-1559.12-226.9h-2.95v-1.53h2.95z" stroke="#3a414a" stroke-width=".05" fill="#3a414a"/><path d="M-1560.6-131.32l-7.5-13h15z" stroke="#3a414a" stroke-width="3" fill="#3a414a"/><path d="M-1543.03-9.85v42.97" stroke="#3a414a" stroke-width="3" fill="none"/><path d="M-1541.56-9.8h-2.95v-1.55h2.94z" stroke="#3a414a" stroke-width=".05" fill="#3a414a"/><path d="M-1543.03 47.6l-7.5-12.98h15z" stroke="#3a414a" stroke-width="3" fill="#3a414a"/><path d="M-1623.03 57.6a6 6 0 0 1 6-6h148a6 6 0 0 1 6 6v180.47a6 6 0 0 1-6 6h-148a6 6 0 0 1-6-6z" stroke="#000" stroke-width="2" fill="#fff"/><use xlink:href="#B" transform="matrix(1,0,0,1,-1618.029878240041,56.61233416011707) translate(15.54150390625 25.45644531250001)"/><use xlink:href="#C" transform="matrix(1,0,0,1,-1618.029878240041,56.61233416011707) translate(76.56787109375 25.45644531250001)"/><use xlink:href="#D" transform="matrix(1,0,0,1,-1618.029878240041,56.61233416011707) translate(101.81884765625 25.45644531250001)"/><use xlink:href="#E" transform="matrix(1,0,0,1,-1618.029878240041,56.61233416011707) translate(33.08642578125 63.207226562500004)"/><use xlink:href="#F" transform="matrix(1,0,0,1,-1618.029878240041,56.61233416011707) translate(93.56689453125 63.207226562500004)"/><use xlink:href="#G" transform="matrix(1,0,0,1,-1618.029878240041,56.61233416011707) translate(-6.0849609375 100.9580078125)"/><use xlink:href="#H" transform="matrix(1,0,0,1,-1618.029878240041,56.61233416011707) translate(54.00830078125 138.7087890625)"/><use xlink:href="#I" transform="matrix(1,0,0,1,-1618.029878240041,56.61233416011707) translate(79.25927734375 138.7087890625)"/><use xlink:href="#J" transform="matrix(1,0,0,1,-1618.029878240041,56.61233416011707) translate(75 176.45957031249998)"/><path d="M-1543.03 246.57v140.2" stroke="#3a414a" stroke-width="3" fill="none"/><path d="M-1541.56 246.6h-2.95v-1.53h2.94z" stroke="#3a414a" stroke-width=".05" fill="#3a414a"/><path d="M-1543.03 401.26l-7.5-13h15z" stroke="#3a414a" stroke-width="3" fill="#3a414a"/><path d="M-1770.8 410.26a6 6 0 0 1 6-6h443.55a6 6 0 0 1 6 6v29.47a6 6 0 0 1-6 6h-443.56a6 6 0 0 1-6-6z" fill="none"/><use xlink:href="#K" transform="matrix(1,0,0,1,-1765.805874333791,409.2570939947882) translate(0 25.4580078125)"/><use xlink:href="#L" transform="matrix(1,0,0,1,-1765.805874333791,409.2570939947882) translate(41.158203125 25.4580078125)"/><use xlink:href="#M" transform="matrix(1,0,0,1,-1765.805874333791,409.2570939947882) translate(155.720703125 25.4580078125)"/><use xlink:href="#N" transform="matrix(1,0,0,1,-1765.805874333791,409.2570939947882) translate(180.6796875 25.4580078125)"/><use xlink:href="#O" transform="matrix(1,0,0,1,-1765.805874333791,409.2570939947882) translate(334.6357421875 25.4580078125)"/><use xlink:href="#P" transform="matrix(1,0,0,1,-1765.805874333791,409.2570939947882) translate(372.27734375 25.4580078125)"/><path d="M-1195.06 412.7a6 6 0 0 1 6-6h148a6 6 0 0 1 6 6v108a6 6 0 0 1-6 6h-148a6 6 0 0 1-6-6z" stroke="#000" stroke-width="2" fill="#fff"/><use xlink:href="#a" transform="matrix(1,0,0,1,-1190.062314959365,411.69506993696973) translate(71.2548828125 63)"/><path d="M-1025.63 412.7a6 6 0 0 1 6-6h148a6 6 0 0 1 6 6v108a6 6 0 0 1-6 6h-148a6 6 0 0 1-6-6z" stroke="#000" stroke-width="2" fill="#fff"/><use xlink:href="#a" transform="matrix(1,0,0,1,-1020.6278792999117,411.69506993696973) translate(71.2548828125 63)"/><path d="M-686.76 412.7a6 6 0 0 1 6-6h148a6 6 0 0 1 6 6v108a6 6 0 0 1-6 6h-148a6 6 0 0 1-6-6z" stroke="#000" stroke-width="2" fill="#fff"/><use xlink:href="#a" transform="matrix(1,0,0,1,-681.759007981005,411.69506993696973) translate(71.2548828125 63)"/><path d="M-856.2 412.7a6 6 0 0 1 6-6h148a6 6 0 0 1 6 6v108a6 6 0 0 1-6 6h-148a6 6 0 0 1-6-6z" stroke="#000" stroke-width="2" fill="#fff"/><use xlink:href="#a" transform="matrix(1,0,0,1,-851.1934436404583,411.69506993696973) translate(71.2548828125 63)"/><path d="M-1072.83 349.13c0 24.46-18.9 44.28-42.23 44.28s-42.24-19.8-42.24-44.27c0-24.45 18.9-44.27 42.24-44.27 23.32 0 42.23 19.82 42.23 44.27z" stroke="#000" stroke-width="2" fill="#fff"/><use xlink:href="#Q" transform="matrix(1,0,0,1,-1152.2968082159928,309.8571698948976) translate(29.298828125 49.875)"/><path d="M-908.05 352.38c0 24.45-18.9 44.27-42.24 44.27-23.32 0-42.22-19.82-42.22-44.27 0-24.45 18.9-44.28 42.23-44.28 23.34 0 42.25 19.82 42.25 44.28z" stroke="#000" stroke-width="2" fill="#fff"/><use xlink:href="#R" transform="matrix(1,0,0,1,-987.5243707314396,313.1019883358982) translate(32.21240234375 49.875)"/><path d="M-743.28 354.42c0 24.45-18.9 44.27-42.24 44.27-23.32 0-42.23-19.83-42.23-44.28 0-24.45 18.9-44.28 42.23-44.28s42.24 19.83 42.24 44.28z" stroke="#000" stroke-width="2" fill="#fff"/><use xlink:href="#S" transform="matrix(1,0,0,1,-822.7519332468866,315.14336707878317) translate(29.57177734375 49.875)"/><path d="M-565.68 352.38c0 24.45-18.9 44.27-42.24 44.27-23.32 0-42.23-19.82-42.23-44.27 0-24.45 18.9-44.28 42.23-44.28s42.24 19.82 42.24 44.28z" stroke="#000" stroke-width="2" fill="#fff"/><use xlink:href="#T" transform="matrix(1,0,0,1,-645.1519826158938,313.1019883358982) translate(29.47021484375 49.875)"/><path d="M-1115.06 529.2v66.2" stroke="#3a414a" stroke-width="3" fill="none"/><path d="M-1113.6 529.23h-2.94v-1.53h2.95z" stroke="#3a414a" stroke-width=".05" fill="#3a414a"/><path d="M-1115.06 609.9l-7.5-13h15z" stroke="#3a414a" stroke-width="3" fill="#3a414a"/><path d="M-1179.75 619.9a6 6 0 0 1 6-6h117.38a6 6 0 0 1 6 6v73.3a6 6 0 0 1-6 6h-117.38a6 6 0 0 1-6-6z" stroke="#000" stroke-width="2" fill="#fff"/><g><use xlink:href="#f" transform="matrix(1,0,0,1,-1174.7519743877278,618.8950123397948) translate(51.03076171875 46.5625)"/></g><path d="M-1115.06 701.7v60.88" stroke="#3a414a" stroke-width="3" fill="none"/><path d="M-1113.6 701.73h-2.94v-1.54h2.95z" stroke="#3a414a" stroke-width=".05" fill="#3a414a"/><path d="M-1115.06 777.07l-7.5-13h15z" stroke="#3a414a" stroke-width="3" fill="#3a414a"/><path d="M-1179.75 787.07a6 6 0 0 1 6-6h117.38a6 6 0 0 1 6 6v73.3a6 6 0 0 1-6 6h-117.38a6 6 0 0 1-6-6z" stroke="#000" stroke-width="2" fill="#fff"/><g><use xlink:href="#g" transform="matrix(1,0,0,1,-1174.7519743877278,786.0673963412561) translate(51.494140625 46.5625)"/></g><path d="M-1015.56 619.9a6 6 0 0 1 6-6h117.38a6 6 0 0 1 6 6v73.3a6 6 0 0 1-6 6h-117.38a6 6 0 0 1-6-6z" stroke="#000" stroke-width="2" fill="#fff"/><g><use xlink:href="#h" transform="matrix(1,0,0,1,-1010.5587775923044,618.8950123397948) translate(25.83056640625 46.5625)"/></g><path d="M-850.2 759.2a6 6 0 0 1 6-6h117.37a6 6 0 0 1 6 6v73.28a6 6 0 0 1-6 6H-844.2a6 6 0 0 1-6-6z" stroke="#000" stroke-width="2" fill="#fff"/><g><use xlink:href="#j" transform="matrix(1,0,0,1,-845.2070994186214,758.185770445751) translate(50.3388671875 46.5625)"/></g><path d="M-676.7 619.9a6 6 0 0 1 6-6h117.4a6 6 0 0 1 6 6v73.3a6 6 0 0 1-6 6h-117.4a6 6 0 0 1-6-6z" stroke="#000" stroke-width="2" fill="#fff"/><g><use xlink:href="#k" transform="matrix(1,0,0,1,-671.6899062733984,618.8950123397948) translate(50.20556640625 46.5625)"/></g><path d="M-945.72 529.2l-4.07 66.24" stroke="#3a414a" stroke-width="3" fill="none"/><path d="M-944.25 529.32l-2.95-.18.1-1.44h2.95z" stroke="#3a414a" stroke-width=".05" fill="#3a414a"/><path d="M-950.68 609.9l-6.7-13.43 14.98.92z" stroke="#3a414a" stroke-width="3" fill="#3a414a"/><path d="M-776.26 529.2l-8.53 205.5" stroke="#3a414a" stroke-width="3" fill="none"/><path d="M-774.78 529.3l-2.95-.13.06-1.47h2.95z" stroke="#3a414a" stroke-width=".05" fill="#3a414a"/><path d="M-785.4 749.2l-6.95-13.3 15 .62z" stroke="#3a414a" stroke-width="3" fill="#3a414a"/><path d="M-606.85 529.2l-4.08 66.24" stroke="#3a414a" stroke-width="3" fill="none"/><path d="M-605.38 529.32l-2.95-.18.1-1.44h2.95z" stroke="#3a414a" stroke-width=".05" fill="#3a414a"/><path d="M-611.82 609.9l-6.68-13.43 14.97.92z" stroke="#3a414a" stroke-width="3" fill="#3a414a"/><path d="M-1541.62 446.25l250.26 92.42" stroke="#3a414a" stroke-width="3" fill="none"/><path d="M-1542.1 447.64l-4.26-1.57.13-.34h4.84z" stroke="#3a414a" stroke-width=".05" fill="#3a414a"/><path d="M-1277.76 543.7l-14.8 2.53 5.2-14.07z" stroke="#3a414a" stroke-width="3" fill="#3a414a"/><defs><path d="M295 13c-75 0-135-60-135-135s60-135 135-135 135 60 135 135S370 13 295 13" id="U"/><use transform="matrix(0.0126953125,0,0,0.0126953125,0,0)" xlink:href="#U" id="a"/><path d="M646 20c-332 0-524-278-524-764 0-483 194-766 524-766s524 283 524 766c0 485-191 764-524 764zm0-166c218 0 341-220 341-598 0-380-123-601-341-601s-341 222-341 601c0 378 123 598 341 598" id="V"/><use transform="matrix(0.0126953125,0,0,0.0126953125,0,0)" xlink:href="#V" id="b"/><path d="M653-1490V0H466v-1314h-10L96-1047v-204l324-239h233" id="W"/><use transform="matrix(0.0126953125,0,0,0.0126953125,0,0)" xlink:href="#W" id="c"/><path d="M154 0v-137l495-537c165-179 249-281 249-418 0-156-121-253-280-253-170 0-278 110-278 278H158c0-264 200-443 465-443 266 0 455 183 455 416 0 161-73 288-336 568L416-179v12h687V0H154" id="X"/><use transform="matrix(0.0126953125,0,0,0.0126953125,0,0)" xlink:href="#X" id="d"/><path d="M635 20c-292 0-500-160-510-396h192c11 142 145 229 315 229 187 0 323-105 323-260 0-161-125-274-346-274H488v-165h121c174 0 294-100 294-254 0-148-104-245-266-245-152 0-291 85-297 230H157c8-234 222-395 484-395 278 0 448 188 448 400 0 168-95 291-247 336v12c190 31 301 169 301 357 0 244-216 425-508 425" id="Y"/><use transform="matrix(0.0126953125,0,0,0.0126953125,0,0)" xlink:href="#Y" id="e"/><path d="M52 0l541-1490h220L1361 0h-200l-149-416H398L254 0H52zm404-582h497c-103-290-145-390-251-756-108 377-145 460-246 756" id="Z"/><use transform="matrix(0.0126953125,0,0,0.0126953125,0,0)" xlink:href="#Z" id="f"/><path d="M180 0v-1490h528c311 0 458 177 458 395 0 191-114 278-244 313v14c139 9 302 137 302 371 0 225-148 397-499 397H180zm190-168h350c232 0 321-102 321-231 0-149-120-277-311-277H370v508zm0-668h328c160 0 286-101 286-255 0-129-87-231-280-231H370v486" id="aa"/><use transform="matrix(0.0126953125,0,0,0.0126953125,0,0)" xlink:href="#aa" id="g"/><path d="M180 0v-1490h224l606 953c40 63 108 177 176 312-27-437-7-821-13-1265h190V0h-226C860-448 622-778 356-1262c27 476 11 792 15 1262H180" id="ab"/><path d="M763 24c-353 0-583-224-583-531v-983h190v968c0 214 149 370 393 370 243 0 391-156 391-370v-968h190v983c0 307-230 531-581 531" id="ac"/><path d="M180 0v-1490h190v1322h690V0H180" id="ad"/><g id="h"><use transform="matrix(0.0126953125,0,0,0.0126953125,0,0)" xlink:href="#ab"/><use transform="matrix(0.0126953125,0,0,0.0126953125,19.5888671875,0)" xlink:href="#ac"/><use transform="matrix(0.0126953125,0,0,0.0126953125,38.9365234375,0)" xlink:href="#ad"/><use transform="matrix(0.0126953125,0,0,0.0126953125,53.6376953125,0)" xlink:href="#ad"/></g><path d="M180 0v-1490h510c348 0 508 194 508 460 0 198-88 351-276 417L1256 0h-220L726-579c-117 2-238 0-356 1V0H180zm190-747h312c235 0 327-108 327-283 0-177-92-293-329-293H370v576" id="ae"/><use transform="matrix(0.0126953125,0,0,0.0126953125,0,0)" xlink:href="#ae" id="i"/><path d="M180 0v-1490h190v644h782v-644h190V0h-190v-678H370V0H180" id="af"/><use transform="matrix(0.0126953125,0,0,0.0126953125,0,0)" xlink:href="#af" id="j"/><path d="M180 0v-1490h224l606 953c40 63 108 177 176 312-27-437-7-821-13-1265h190V0h-226C860-448 622-778 356-1262c27 476 11 792 15 1262H180zm723-1685c-99 0-192-83-243-83-35 0-51 40-53 79H481c4-120 55-208 162-208 104 0 174 85 241 85 33 0 49-23 56-81h123c-4 126-62 208-160 208" id="ag"/><use transform="matrix(0.0126953125,0,0,0.0126953125,0,0)" xlink:href="#ag" id="k"/><path d="M657 26c-323 0-524-166-541-416h195c15 169 171 246 346 246 202 0 356-106 356-265 5-203-294-238-475-293-239-73-380-191-380-389 0-252 224-419 512-419 294 0 499 171 508 396H992c-17-145-151-228-328-228-193 0-321 102-321 242 0 156 175 211 284 241l149 41c160 44 422 134 422 412 0 244-197 432-541 432" id="ah"/><path d="M783 20c-382 0-661-292-661-764 0-473 279-766 661-766 302 0 548 182 601 489h-190c-42-204-217-313-411-313-268 0-476 208-476 590 0 381 209 588 476 588 195 0 369-110 411-313h190c-52 303-296 489-601 489" id="ai"/><path d="M784 20c-382 0-662-292-662-764 0-473 280-766 662-766s660 293 660 766c0 472-278 764-660 764zm0-176c266 0 475-207 475-588 0-383-209-590-475-590-268 0-477 208-477 590 0 380 209 588 477 588" id="aj"/><g id="l"><use transform="matrix(0.0126953125,0,0,0.0126953125,0,0)" xlink:href="#aa"/><use transform="matrix(0.0126953125,0,0,0.0126953125,17.01171875,0)" xlink:href="#ac"/><use transform="matrix(0.0126953125,0,0,0.0126953125,36.359375,0)" xlink:href="#ah"/><use transform="matrix(0.0126953125,0,0,0.0126953125,53.041015625,0)" xlink:href="#ai"/><use transform="matrix(0.0126953125,0,0,0.0126953125,72.033203125,0)" xlink:href="#aj"/></g><path d="M180 0v-1490h908v168H370v486h669v168H370v500h727V0H180" id="ak"/><path d="M370-1490V0H180v-1490h190" id="al"/><path d="M180 0v-1490h270l367 940c28 72 75 218 110 339 35-117 81-264 110-339l362-940h271V0h-187c2-448-5-837 7-1287-157 497-311 829-483 1287H842C666-458 514-784 354-1284c12 438 5 843 7 1284H180" id="am"/><g id="m"><use transform="matrix(0.0126953125,0,0,0.0126953125,0,0)" xlink:href="#ak"/><use transform="matrix(0.0126953125,0,0,0.0126953125,15.6279296875,0)" xlink:href="#ad"/><use transform="matrix(0.0126953125,0,0,0.0126953125,30.3291015625,0)" xlink:href="#al"/><use transform="matrix(0.0126953125,0,0,0.0126953125,37.3115234375,0)" xlink:href="#am"/><use transform="matrix(0.0126953125,0,0,0.0126953125,60.7978515625,0)" xlink:href="#al"/><use transform="matrix(0.0126953125,0,0,0.0126953125,67.7802734375,0)" xlink:href="#ab"/><use transform="matrix(0.0126953125,0,0,0.0126953125,87.369140625,0)" xlink:href="#Z"/><use transform="matrix(0.0126953125,0,0,0.0126953125,105.3076171875,0)" xlink:href="#ae"/></g><g id="n"><use transform="matrix(0.0126953125,0,0,0.0126953125,0,0)" xlink:href="#ad"/><use transform="matrix(0.0126953125,0,0,0.0126953125,14.701171875,0)" xlink:href="#Z"/></g><path d="M600 0L52-1490h200c166 485 304 806 458 1336 156-533 285-846 449-1336h202L819 0H600" id="an"/><g id="o"><use transform="matrix(0.0126953125,0,0,0.0126953125,0,0)" xlink:href="#ai"/><use transform="matrix(0.0126953125,0,0,0.0126953125,18.484375,0)" xlink:href="#Z"/><use transform="matrix(0.0126953125,0,0,0.0126953125,36.4228515625,0)" xlink:href="#ad"/><use transform="matrix(0.0126953125,0,0,0.0126953125,49.359375,0)" xlink:href="#an"/><use transform="matrix(0.0126953125,0,0,0.0126953125,67.2978515625,0)" xlink:href="#ak"/></g><use transform="matrix(0.0126953125,0,0,0.0126953125,0,0)" xlink:href="#ae" id="p"/><g id="q"><use transform="matrix(0.0126953125,0,0,0.0126953125,0,0)" xlink:href="#am"/><use transform="matrix(0.0126953125,0,0,0.0126953125,23.486328125,0)" xlink:href="#al"/></g><path d="M180 0v-1490h901v168H370v510h643v168H370V0H180" id="ao"/><g id="r"><use transform="matrix(0.0126953125,0,0,0.0126953125,0,0)" xlink:href="#ao"/><use transform="matrix(0.0126953125,0,0,0.0126953125,15.3486328125,0)" xlink:href="#ac"/><use transform="matrix(0.0126953125,0,0,0.0126953125,34.6962890625,0)" xlink:href="#ab"/><use transform="matrix(0.0126953125,0,0,0.0126953125,54.28515625,0)" xlink:href="#ai"/><use transform="matrix(0.0126953125,0,0,0.0126953125,73.27734375,0)" xlink:href="#al"/><use transform="matrix(0.0126953125,0,0,0.0126953125,80.259765625,0)" xlink:href="#aj"/><use transform="matrix(0.0126953125,0,0,0.0126953125,100.140625,0)" xlink:href="#ab"/></g><path d="M789 20c-398 0-667-293-667-764 0-473 273-766 655-766 315 0 558 198 612 487h-196c-61-191-204-311-415-311-262 0-471 207-471 590 0 380 208 588 482 588 249 0 420-165 425-427H828v-166h572v163c0 370-256 606-611 606" id="ap"/><g id="s"><use transform="matrix(0.0126953125,0,0,0.0126953125,0,0)" xlink:href="#af"/><use transform="matrix(0.0126953125,0,0,0.0126953125,19.322265625,0)" xlink:href="#Z"/><use transform="matrix(0.0126953125,0,0,0.0126953125,37.2607421875,0)" xlink:href="#ah"/><use transform="matrix(0.0126953125,0,0,0.0126953125,53.9423828125,0)" xlink:href="#af"/><use transform="matrix(0.0126953125,0,0,0.0126953125,73.2646484375,0)" xlink:href="#al"/><use transform="matrix(0.0126953125,0,0,0.0126953125,80.2470703125,0)" xlink:href="#ab"/><use transform="matrix(0.0126953125,0,0,0.0126953125,99.8359375,0)" xlink:href="#ap"/></g><g id="t"><use transform="matrix(0.0126953125,0,0,0.0126953125,0,0)" xlink:href="#am"/><use transform="matrix(0.0126953125,0,0,0.0126953125,23.486328125,0)" xlink:href="#ak"/></g><path d="M645 0H180v-1490h484c435 0 692 280 692 742 0 466-257 748-711 748zM370-168h263c363 0 539-218 539-580 0-358-176-574-521-574H370v1154" id="aq"/><g id="u"><use transform="matrix(0.0126953125,0,0,0.0126953125,0,0)" xlink:href="#aq"/><use transform="matrix(0.0126953125,0,0,0.0126953125,18.763671875,0)" xlink:href="#al"/><use transform="matrix(0.0126953125,0,0,0.0126953125,25.74609375,0)" xlink:href="#ai"/><use transform="matrix(0.0126953125,0,0,0.0126953125,44.73828125,0)" xlink:href="#ak"/></g><path d="M784 20c-382 0-662-292-662-764 0-473 280-766 662-766s660 293 660 766c0 282-99 499-260 629l192 255h-198L1049-33C969 2 880 20 784 20zm-62-486h198l156 205c112-98 183-261 183-483 0-383-209-590-475-590-268 0-477 208-477 590 0 380 209 588 477 588 54 0 106-9 154-25" id="ar"/><g id="v"><use transform="matrix(0.0126953125,0,0,0.0126953125,0,0)" xlink:href="#ar"/><use transform="matrix(0.0126953125,0,0,0.0126953125,19.880859375,0)" xlink:href="#ac"/><use transform="matrix(0.0126953125,0,0,0.0126953125,39.228515625,0)" xlink:href="#ak"/></g><path d="M98-1322v-168h1126v168H757V0H567v-1322H98" id="as"/><g id="w"><use transform="matrix(0.0126953125,0,0,0.0126953125,0,0)" xlink:href="#ak"/><use transform="matrix(0.0126953125,0,0,0.0126953125,15.6279296875,0)" xlink:href="#ah"/><use transform="matrix(0.0126953125,0,0,0.0126953125,32.3095703125,0)" xlink:href="#as"/><use transform="matrix(0.0126953125,0,0,0.0126953125,46.8837890625,0)" xlink:href="#Z"/></g><g id="x"><use transform="matrix(0.0126953125,0,0,0.0126953125,0,0)" xlink:href="#ak"/><use transform="matrix(0.0126953125,0,0,0.0126953125,15.6279296875,0)" xlink:href="#ab"/></g><g id="y"><use transform="matrix(0.0126953125,0,0,0.0126953125,0,0)" xlink:href="#ad"/><use transform="matrix(0.0126953125,0,0,0.0126953125,14.701171875,0)" xlink:href="#Z"/></g><path d="M180 0v-1490h510c348 0 508 209 508 474 0 266-160 477-507 477H370V0H180zm190-706h312c236 0 327-133 327-310 0-176-91-307-329-307H370v617" id="at"/><g id="z"><use transform="matrix(0.0126953125,0,0,0.0126953125,0,0)" xlink:href="#at"/><use transform="matrix(0.0126953125,0,0,0.0126953125,16.60546875,0)" xlink:href="#aj"/><use transform="matrix(0.0126953125,0,0,0.0126953125,36.486328125,0)" xlink:href="#ah"/><use transform="matrix(0.0126953125,0,0,0.0126953125,53.16796875,0)" xlink:href="#al"/><use transform="matrix(0.0126953125,0,0,0.0126953125,60.150390625,0)" xlink:href="#ai"/><use transform="matrix(0.0126953125,0,0,0.0126953125,79.142578125,0)" xlink:href="#al"/><use transform="matrix(0.0126953125,0,0,0.0126953125,86.125,0)" xlink:href="#aj"/><use transform="matrix(0.0126953125,0,0,0.0126953125,106.005859375,0)" xlink:href="#ab"/></g><use transform="matrix(0.0126953125,0,0,0.0126953125,0,0)" xlink:href="#X" id="A"/><path d="M600 0v-610L52-1490h220l295 481c50 82 90 150 130 243 40-96 80-164 128-243l294-481h219L790-610V0H600" id="au"/><g id="B"><use transform="matrix(0.0126953125,0,0,0.0126953125,0,0)" xlink:href="#an"/><use transform="matrix(0.0126953125,0,0,0.0126953125,17.0625,0)" xlink:href="#aj"/><use transform="matrix(0.0126953125,0,0,0.0126953125,36.0673828125,0)" xlink:href="#au"/></g><use transform="matrix(0.0126953125,0,0,0.0126953125,0,0)" xlink:href="#Z" id="C"/><g id="D"><use transform="matrix(0.0126953125,0,0,0.0126953125,0,0)" xlink:href="#ad"/><use transform="matrix(0.0126953125,0,0,0.0126953125,14.701171875,0)" xlink:href="#Z"/></g><g id="E"><use transform="matrix(0.0126953125,0,0,0.0126953125,0,0)" xlink:href="#at"/><use transform="matrix(0.0126953125,0,0,0.0126953125,16.60546875,0)" xlink:href="#aj"/><use transform="matrix(0.0126953125,0,0,0.0126953125,36.486328125,0)" xlink:href="#ah"/></g><path d="M128 359l88-567h206L266 359H128" id="av"/><g id="F"><use transform="matrix(0.0126953125,0,0,0.0126953125,0,0)" xlink:href="#X"/><use transform="matrix(0.0126953125,0,0,0.0126953125,15.8564453125,0)" xlink:href="#av"/></g><g id="G"><use transform="matrix(0.0126953125,0,0,0.0126953125,0,0)" xlink:href="#ak"/><use transform="matrix(0.0126953125,0,0,0.0126953125,15.6279296875,0)" xlink:href="#ab"/><use transform="matrix(0.0126953125,0,0,0.0126953125,35.216796875,0)" xlink:href="#ai"/><use transform="matrix(0.0126953125,0,0,0.0126953125,54.208984375,0)" xlink:href="#ac"/><use transform="matrix(0.0126953125,0,0,0.0126953125,73.556640625,0)" xlink:href="#ak"/><use transform="matrix(0.0126953125,0,0,0.0126953125,89.1845703125,0)" xlink:href="#ab"/><use transform="matrix(0.0126953125,0,0,0.0126953125,108.7734375,0)" xlink:href="#as"/><use transform="matrix(0.0126953125,0,0,0.0126953125,125.556640625,0)" xlink:href="#ae"/><use transform="matrix(0.0126953125,0,0,0.0126953125,142.2890625,0)" xlink:href="#aj"/></g><use transform="matrix(0.0126953125,0,0,0.0126953125,0,0)" xlink:href="#Z" id="H"/><use transform="matrix(0.0126953125,0,0,0.0126953125,0,0)" xlink:href="#ae" id="I"/><g id="K"><use transform="matrix(0.0126953125,0,0,0.0126953125,0,0)" xlink:href="#ad"/><use transform="matrix(0.0126953125,0,0,0.0126953125,13.96484375,0)" xlink:href="#aj"/></g><g id="L"><use transform="matrix(0.0126953125,0,0,0.0126953125,0,0)" xlink:href="#ak"/><use transform="matrix(0.0126953125,0,0,0.0126953125,15.6279296875,0)" xlink:href="#ad"/><use transform="matrix(0.0126953125,0,0,0.0126953125,30.3291015625,0)" xlink:href="#al"/><use transform="matrix(0.0126953125,0,0,0.0126953125,37.3115234375,0)" xlink:href="#am"/><use transform="matrix(0.0126953125,0,0,0.0126953125,60.7978515625,0)" xlink:href="#al"/><use transform="matrix(0.0126953125,0,0,0.0126953125,67.7802734375,0)" xlink:href="#ab"/><use transform="matrix(0.0126953125,0,0,0.0126953125,87.369140625,0)" xlink:href="#aj"/></g><use transform="matrix(0.0126953125,0,0,0.0126953125,0,0)" xlink:href="#au" id="M"/><path d="M130 0v-134l666-991c45-67 96-135 147-202-269 9-546 3-821 5v-168h1036v136L502-379c-49 72-103 145-157 216 268-9 546-3 821-5V0H130" id="aw"/><g id="N"><use transform="matrix(0.0126953125,0,0,0.0126953125,0,0)" xlink:href="#Z"/><use transform="matrix(0.0126953125,0,0,0.0126953125,17.0498046875,0)" xlink:href="#ai"/><use transform="matrix(0.0126953125,0,0,0.0126953125,36.0419921875,0)" xlink:href="#as"/><use transform="matrix(0.0126953125,0,0,0.0126953125,52.8251953125,0)" xlink:href="#ac"/><use transform="matrix(0.0126953125,0,0,0.0126953125,71.6650390625,0)" xlink:href="#Z"/><use transform="matrix(0.0126953125,0,0,0.0126953125,89.603515625,0)" xlink:href="#ad"/><use transform="matrix(0.0126953125,0,0,0.0126953125,104.3046875,0)" xlink:href="#al"/><use transform="matrix(0.0126953125,0,0,0.0126953125,111.287109375,0)" xlink:href="#aw"/><use transform="matrix(0.0126953125,0,0,0.0126953125,126.7626953125,0)" xlink:href="#aj"/></g><g id="O"><use transform="matrix(0.0126953125,0,0,0.0126953125,0,0)" xlink:href="#ak"/><use transform="matrix(0.0126953125,0,0,0.0126953125,15.6279296875,0)" xlink:href="#ad"/></g><g id="P"><use transform="matrix(0.0126953125,0,0,0.0126953125,0,0)" xlink:href="#af"/><use transform="matrix(0.0126953125,0,0,0.0126953125,19.322265625,0)" xlink:href="#Z"/><use transform="matrix(0.0126953125,0,0,0.0126953125,37.2607421875,0)" xlink:href="#ah"/><use transform="matrix(0.0126953125,0,0,0.0126953125,53.9423828125,0)" xlink:href="#af"/></g><use transform="matrix(0.0126953125,0,0,0.0126953125,0,0)" xlink:href="#V" id="Q"/><use transform="matrix(0.0126953125,0,0,0.0126953125,0,0)" xlink:href="#W" id="R"/><use transform="matrix(0.0126953125,0,0,0.0126953125,0,0)" xlink:href="#X" id="S"/><use transform="matrix(0.0126953125,0,0,0.0126953125,0,0)" xlink:href="#Y" id="T"/></defs></g></svg>