<svg xmlns="http://www.w3.org/2000/svg" xmlns:xlink="http://www.w3.org/1999/xlink" xmlns:lucid="lucid" width="1652.16" height="719.28"><g transform="translate(1839.0477952235742 492.786113833136)" lucid:page-tab-id="0_0"><path d="M-2000-500H0V500h-2000z" fill="#f2f3f5"/><path d="M-1364.5-321.28a6 6 0 0 1 6-6h148a6 6 0 0 1 6 6v108a6 6 0 0 1-6 6h-148a6 6 0 0 1-6-6z" stroke="#000" stroke-width="2" fill="#fff"/><use xlink:href="#a" transform="matrix(1,0,0,1,-1359.4967506188184,-322.2828233111128) translate(66.798828125 63)"/><path d="M-1195.06-321.28a6 6 0 0 1 6-6h148a6 6 0 0 1 6 6v108a6 6 0 0 1-6 6h-148a6 6 0 0 1-6-6z" stroke="#000" stroke-width="2" fill="#fff"/><use xlink:href="#b" transform="matrix(1,0,0,1,-1190.062314959365,-322.2828233111128) translate(69.71240234375 63)"/><path d="M-1025.63-321.28a6 6 0 0 1 6-6h148a6 6 0 0 1 6 6v108a6 6 0 0 1-6 6h-148a6 6 0 0 1-6-6z" stroke="#000" stroke-width="2" fill="#fff"/><use xlink:href="#c" transform="matrix(1,0,0,1,-1020.6278792999117,-322.2828233111128) translate(67.07177734375 63)"/><path d="M-686.76-321.28a6 6 0 0 1 6-6h148a6 6 0 0 1 6 6v108a6 6 0 0 1-6 6h-148a6 6 0 0 1-6-6z" stroke="#000" stroke-width="2" fill="#fff"/><use xlink:href="#d" transform="matrix(1,0,0,1,-681.759007981005,-322.2828233111128) translate(66.60205078125 63)"/><path d="M-856.2-321.28a6 6 0 0 1 6-6h148a6 6 0 0 1 6 6v108a6 6 0 0 1-6 6h-148a6 6 0 0 1-6-6z" stroke="#000" stroke-width="2" fill="#fff"/><use xlink:href="#e" transform="matrix(1,0,0,1,-851.1934436404583,-322.2828233111128) translate(66.97021484375 63)"/><path d="M-517.33-321.28a6 6 0 0 1 6-6h148a6 6 0 0 1 6 6v108a6 6 0 0 1-6 6h-148a6 6 0 0 1-6-6z" stroke="#000" stroke-width="2" fill="#fff"/><use xlink:href="#f" transform="matrix(1,0,0,1,-512.3245723215516,-322.2828233111128) translate(67.09716796875 63)"/><path d="M-347.9-321.28a6 6 0 0 1 6-6h148a6 6 0 0 1 6 6v108a6 6 0 0 1-6 6h-148a6 6 0 0 1-6-6z" stroke="#000" stroke-width="2" fill="#fff"/><use xlink:href="#g" transform="matrix(1,0,0,1,-342.89013666209826,-322.2828233111128) translate(66.9384765625 63)"/><path d="M-1839.05-486.8a6 6 0 0 1 6-6h305.56a6 6 0 0 1 6 6v104.98a6 6 0 0 1-6 6h-305.55a6 6 0 0 1-6-6z" fill="none"/><use xlink:href="#h" transform="matrix(1,0,0,1,-1834.0477952235742,-487.786113833136) translate(0.22802734375 25.207226562500004)"/><use xlink:href="#i" transform="matrix(1,0,0,1,-1834.0477952235742,-487.786113833136) translate(81.42724609375 25.207226562500004)"/><use xlink:href="#j" transform="matrix(1,0,0,1,-1834.0477952235742,-487.786113833136) translate(105.94189453125 25.207226562500004)"/><use xlink:href="#k" transform="matrix(1,0,0,1,-1834.0477952235742,-487.786113833136) translate(255.34033203125 25.207226562500004)"/><use xlink:href="#l" transform="matrix(1,0,0,1,-1834.0477952235742,-487.786113833136) translate(288.18310546875 25.207226562500004)"/><use xlink:href="#m" transform="matrix(1,0,0,1,-1834.0477952235742,-487.786113833136) translate(154 62.9580078125)"/><use xlink:href="#n" transform="matrix(1,0,0,1,-1834.0477952235742,-487.786113833136) translate(154 100.70878906249999)"/><path d="M-1284.5-204.78v75.4" stroke="#3a414a" stroke-width="3" stroke-linejoin="round" fill="none"/><path d="M-1283.02-204.74h-2.95v-1.54h2.95z" stroke="#3a414a" stroke-width=".05" fill="#3a414a"/><path d="M-1284.5-114.9l-7.5-13h15z" stroke="#3a414a" stroke-width="3" fill="#3a414a"/><path d="M-1115.06-204.78v81.52" stroke="#3a414a" stroke-width="3" stroke-linejoin="round" fill="none"/><path d="M-1113.6-204.74h-2.94v-1.54h2.95z" stroke="#3a414a" stroke-width=".05" fill="#3a414a"/><path d="M-1115.06-108.77l-7.5-13h15z" stroke="#3a414a" stroke-width="3" fill="#3a414a"/><path d="M-776.2-204.78v81.52" stroke="#3a414a" stroke-width="3" stroke-linejoin="round" fill="none"/><path d="M-774.72-204.74h-2.95v-1.54h2.95z" stroke="#3a414a" stroke-width=".05" fill="#3a414a"/><path d="M-776.2-108.77l-7.5-13h15z" stroke="#3a414a" stroke-width="3" fill="#3a414a"/><path d="M-606.77-204.78l-.84 83.56" stroke="#3a414a" stroke-width="3" stroke-linejoin="round" fill="none"/><path d="M-605.3-204.73l-2.95-.03.02-1.52h2.95z" stroke="#3a414a" stroke-width=".05" fill="#3a414a"/><path d="M-607.75-106.73l-7.37-13.06 15 .15z" stroke="#3a414a" stroke-width="3" fill="#3a414a"/><path d="M-437.32-204.78v83.56" stroke="#3a414a" stroke-width="3" stroke-linejoin="round" fill="none"/><path d="M-435.85-204.74h-2.95v-1.54h2.95z" stroke="#3a414a" stroke-width=".05" fill="#3a414a"/><path d="M-437.32-106.73l-7.5-13h15z" stroke="#3a414a" stroke-width="3" fill="#3a414a"/><path d="M-267.9-204.78v81.52" stroke="#3a414a" stroke-width="3" stroke-linejoin="round" fill="none"/><path d="M-266.42-204.74h-2.94v-1.54h2.94z" stroke="#3a414a" stroke-width=".05" fill="#3a414a"/><path d="M-267.9-108.77l-7.5-13h15z" stroke="#3a414a" stroke-width="3" fill="#3a414a"/><path d="M-1327.75-104.9a6 6 0 0 1 6-6h74.5a6 6 0 0 1 6 6v59a6 6 0 0 1-6 6h-74.5a6 6 0 0 1-6-6z" stroke="#000" stroke-width="2" fill="#fff"/><use xlink:href="#o" transform="matrix(1,0,0,1,-1322.7519332468887,-105.89667656527712) translate(4.33056640625 40.6875)"/><path d="M-1158.32-98.77a6 6 0 0 1 6-6h74.5a6 6 0 0 1 6 6v59a6 6 0 0 1-6 6h-74.5a6 6 0 0 1-6-6z" stroke="#000" stroke-width="2" fill="#fff"/><use xlink:href="#p" transform="matrix(1,0,0,1,-1153.3174975874354,-99.77254033665048) translate(19.05712890625 40.6875)"/><path d="M-989.9-96.73a6 6 0 0 1 6-6h74.5a6 6 0 0 1 6 6v59a6 6 0 0 1-6 6h-74.5a6 6 0 0 1-6-6z" stroke="#000" stroke-width="2" fill="#fff"/><use xlink:href="#q" transform="matrix(1,0,0,1,-984.9037512994253,-97.73116159376553) translate(18.3271484375 40.6875)"/><path d="M-819.45-98.77a6 6 0 0 1 6-6h74.5a6 6 0 0 1 6 6v59a6 6 0 0 1-6 6h-74.5a6 6 0 0 1-6-6z" stroke="#000" stroke-width="2" fill="#fff"/><use xlink:href="#o" transform="matrix(1,0,0,1,-814.4486262685288,-99.77254033665048) translate(4.33056640625 40.6875)"/><path d="M-651.03-96.73a6 6 0 0 1 6-6h74.5a6 6 0 0 1 6 6v59a6 6 0 0 1-6 6h-74.5a6 6 0 0 1-6-6z" stroke="#000" stroke-width="2" fill="#fff"/><use xlink:href="#o" transform="matrix(1,0,0,1,-646.0348799805172,-97.73116159376553) translate(4.33056640625 40.6875)"/><path d="M-480.58-96.73a6 6 0 0 1 6-6h74.5a6 6 0 0 1 6 6v59a6 6 0 0 1-6 6h-74.5a6 6 0 0 1-6-6z" stroke="#000" stroke-width="2" fill="#fff"/><use xlink:href="#r" transform="matrix(1,0,0,1,-475.57975494962204,-97.73116159376553) translate(13.36328125 40.6875)"/><path d="M-311.14-98.77a6 6 0 0 1 6-6h74.5a6 6 0 0 1 6 6v59a6 6 0 0 1-6 6h-74.5a6 6 0 0 1-6-6z" stroke="#000" stroke-width="2" fill="#fff"/><use xlink:href="#o" transform="matrix(1,0,0,1,-306.1453192901687,-99.77254033665048) translate(4.33056640625 40.6875)"/><path d="M-1115.06-31.27v29.25" stroke="#3a414a" stroke-width="3" stroke-linejoin="round" fill="none"/><path d="M-1113.6-31.23h-2.94v-1.54h2.95z" stroke="#3a414a" stroke-width=".05" fill="#3a414a"/><path d="M-1115.06 12.47l-7.5-13h15z" stroke="#3a414a" stroke-width="3" fill="#3a414a"/><path d="M-1158.32 22.47a6 6 0 0 1 6-6h74.5a6 6 0 0 1 6 6v59a6 6 0 0 1-6 6h-74.5a6 6 0 0 1-6-6z" stroke="#000" stroke-width="2" fill="#fff"/><use xlink:href="#s" transform="matrix(1,0,0,1,-1153.3174975874354,21.468821949898825) translate(18.21923828125 40.6875)"/><path d="M-946.65-29.22v28.2" stroke="#3a414a" stroke-width="3" stroke-linejoin="round" fill="none"/><path d="M-945.17-29.18h-2.95v-1.54h2.95z" stroke="#3a414a" stroke-width=".05" fill="#3a414a"/><path d="M-946.65 13.47l-7.5-13h15z" stroke="#3a414a" stroke-width="3" fill="#3a414a"/><path d="M-987.86 38a6 6 0 0 1 6-6h74.5a6 6 0 0 1 6 6v59a6 6 0 0 1-6 6h-74.5a6 6 0 0 1-6-6z" stroke="#000" stroke-width="2" fill="#fff"/><use xlink:href="#t" transform="matrix(1,0,0,1,-982.8623725565403,36.99983543664291) translate(19.2919921875 40.6875)"/><path d="M-987.86 160.48a6 6 0 0 1 6-6h74.5a6 6 0 0 1 6 6v59a6 6 0 0 1-6 6h-74.5a6 6 0 0 1-6-6z" stroke="#000" stroke-width="2" fill="#fff"/><use xlink:href="#u" transform="matrix(1,0,0,1,-982.8623725565403,159.4825600097414) translate(18.73974609375 40.6875)"/><path d="M-944.6 105.5V136" stroke="#3a414a" stroke-width="3" stroke-linejoin="round" fill="none"/><path d="M-943.13 105.55h-2.95V104h2.95z" stroke="#3a414a" stroke-width=".05" fill="#3a414a"/><path d="M-944.6 150.48l-7.5-13h15z" stroke="#3a414a" stroke-width="3" fill="#3a414a"/><path d="M-945.63-204.78v83.56" stroke="#3a414a" stroke-width="3" stroke-linejoin="round" fill="none"/><path d="M-944.15-204.74h-2.95v-1.54h2.95z" stroke="#3a414a" stroke-width=".05" fill="#3a414a"/><path d="M-945.63-106.73l-7.5-13h15z" stroke="#3a414a" stroke-width="3" fill="#3a414a"/><defs><path d="M646 20c-332 0-524-278-524-764 0-483 194-766 524-766s524 283 524 766c0 485-191 764-524 764zm0-166c218 0 341-220 341-598 0-380-123-601-341-601s-341 222-341 601c0 378 123 598 341 598" id="v"/><use transform="matrix(0.0126953125,0,0,0.0126953125,0,0)" xlink:href="#v" id="a"/><path d="M653-1490V0H466v-1314h-10L96-1047v-204l324-239h233" id="w"/><use transform="matrix(0.0126953125,0,0,0.0126953125,0,0)" xlink:href="#w" id="b"/><path d="M154 0v-137l495-537c165-179 249-281 249-418 0-156-121-253-280-253-170 0-278 110-278 278H158c0-264 200-443 465-443 266 0 455 183 455 416 0 161-73 288-336 568L416-179v12h687V0H154" id="x"/><use transform="matrix(0.0126953125,0,0,0.0126953125,0,0)" xlink:href="#x" id="c"/><path d="M120-303v-155l652-1032h231v1020h202v167h-202V0H821v-303H120zm702-167v-782h-12L323-482v12h499" id="y"/><use transform="matrix(0.0126953125,0,0,0.0126953125,0,0)" xlink:href="#y" id="d"/><path d="M635 20c-292 0-500-160-510-396h192c11 142 145 229 315 229 187 0 323-105 323-260 0-161-125-274-346-274H488v-165h121c174 0 294-100 294-254 0-148-104-245-266-245-152 0-291 85-297 230H157c8-234 222-395 484-395 278 0 448 188 448 400 0 168-95 291-247 336v12c190 31 301 169 301 357 0 244-216 425-508 425" id="z"/><use transform="matrix(0.0126953125,0,0,0.0126953125,0,0)" xlink:href="#z" id="e"/><path d="M626 20c-262 0-458-168-468-396h184c12 133 134 229 284 229 180 0 311-137 311-326 0-192-136-335-323-335-92 0-196 33-255 78l-178-22 88-738h784v167H429l-51 435h8c61-51 160-87 263-87 273 0 474 211 474 499 0 286-210 496-497 496" id="A"/><use transform="matrix(0.0126953125,0,0,0.0126953125,0,0)" xlink:href="#A" id="f"/><path d="M646 20c-249 0-524-159-524-708 0-524 209-822 547-822 250 0 431 161 467 395H950c-33-129-126-227-281-227-229 0-367 208-367 566h12c80-124 212-198 367-198 255 0 467 205 467 493 0 278-198 501-502 501zm0-167c179 0 318-148 318-334 0-182-133-328-313-328-181 0-322 156-322 330 0 176 134 332 317 332" id="B"/><use transform="matrix(0.0126953125,0,0,0.0126953125,0,0)" xlink:href="#B" id="g"/><path d="M158 0v-1118h180V0H158zm12-1264l140-294h201l-194 294H170" id="C"/><path d="M338-670V0H158v-1118h173l1 207c72-158 192-221 342-221 226 0 378 139 378 422V0H872v-695c0-172-96-275-252-275-161 0-282 109-282 300" id="D"/><path d="M577 24c-279 0-473-224-473-580 0-354 195-576 474-576 218 0 287 134 324 193h14v-551h180V0H922v-173h-20C865-111 790 24 577 24zm27-161c203 0 314-172 314-421 0-247-108-413-314-413-212 0-317 181-317 413 0 235 108 421 317 421" id="E"/><path d="M158 0v-1118h180V0H158zm91-1301c-68 0-125-53-125-119s57-119 125-119c69 0 126 53 126 119s-57 119-126 119" id="F"/><path d="M613 24c-304 0-509-231-509-576 0-350 205-580 509-580 216 0 392 114 453 309l-173 49c-33-115-133-197-280-197-223 0-326 196-326 419 0 220 103 415 326 415 150 0 252-85 285-206l172 49C1010-95 832 24 613 24" id="G"/><path d="M628 24c-324 0-524-230-524-574 0-343 198-582 503-582 237 0 487 146 487 559v75H286c9 234 145 362 343 362 132 0 231-58 273-172l174 48C1024-91 857 24 628 24zM287-650h624c-17-190-120-322-304-322-192 0-309 151-320 322" id="H"/><g id="h"><use transform="matrix(0.0126953125,0,0,0.0126953125,0,0)" xlink:href="#C"/><use transform="matrix(0.0126953125,0,0,0.0126953125,6.296875,0)" xlink:href="#D"/><use transform="matrix(0.0126953125,0,0,0.0126953125,21.658203125,0)" xlink:href="#E"/><use transform="matrix(0.0126953125,0,0,0.0126953125,37.578125,0)" xlink:href="#F"/><use transform="matrix(0.0126953125,0,0,0.0126953125,43.875,0)" xlink:href="#G"/><use transform="matrix(0.0126953125,0,0,0.0126953125,58.728515625,0)" xlink:href="#H"/></g><path d="M226-283v-166h904v166H226zm0-434v-166h904v166H226" id="I"/><use transform="matrix(0.0126953125,0,0,0.0126953125,0,0)" xlink:href="#I" id="i"/><path d="M338-670V0H158v-1490h180v566c73-149 190-208 336-208 226 0 379 139 379 422V0H872v-695c0-172-96-275-252-275-161 0-282 109-282 300" id="J"/><path d="M471 26C259 26 90-98 90-318c0-256 228-303 435-329 202-27 287-16 287-108 0-139-79-219-234-219-161 0-248 86-283 164l-173-57c86-203 278-265 451-265 150 0 419 46 419 395V0H815v-152h-12C765-73 660 26 471 26zm31-159c199 0 310-134 310-271v-155c-30 35-226 55-295 64-131 17-246 59-246 186 0 116 97 176 231 176" id="K"/><path d="M538 24C308 24 148-78 108-271l171-41c32 123 123 178 257 178 156 0 256-77 256-169 0-77-54-128-164-154l-186-44c-203-48-300-148-300-305 0-192 176-326 414-326 230 0 351 112 402 269l-163 42c-31-80-94-158-238-158-133 0-233 69-233 162 0 83 57 129 188 160l169 40c203 48 298 149 298 302 0 196-179 339-441 339" id="L"/><path d="M218-607c0-325 108-727 258-974h175c-155 315-250 682-250 974 0 265 78 531 250 886H476C306-10 218-315 218-607" id="M"/><path d="M338-1490V0H158v-1490h180" id="N"/><path d="M481 0L54-1118h197c107 314 236 620 325 951 87-331 217-637 324-951h197L670 0H481" id="O"/><path d="M96 279C273-86 346-350 346-607c0-292-95-659-250-974h175c150 246 258 650 258 974 0 297-91 602-258 886H96" id="P"/><g id="j"><use transform="matrix(0.0126953125,0,0,0.0126953125,0,0)" xlink:href="#J"/><use transform="matrix(0.0126953125,0,0,0.0126953125,15.3740234375,0)" xlink:href="#K"/><use transform="matrix(0.0126953125,0,0,0.0126953125,29.9736328125,0)" xlink:href="#L"/><use transform="matrix(0.0126953125,0,0,0.0126953125,43.697265625,0)" xlink:href="#J"/><use transform="matrix(0.0126953125,0,0,0.0126953125,59.0712890625,0)" xlink:href="#M"/><use transform="matrix(0.0126953125,0,0,0.0126953125,68.2626953125,0)" xlink:href="#G"/><use transform="matrix(0.0126953125,0,0,0.0126953125,83.1162109375,0)" xlink:href="#N"/><use transform="matrix(0.0126953125,0,0,0.0126953125,89.4130859375,0)" xlink:href="#K"/><use transform="matrix(0.0126953125,0,0,0.0126953125,103.6318359375,0)" xlink:href="#O"/><use transform="matrix(0.0126953125,0,0,0.0126953125,117.736328125,0)" xlink:href="#H"/><use transform="matrix(0.0126953125,0,0,0.0126953125,132.6025390625,0)" xlink:href="#P"/></g><path d="M1490 29c-191 0-293-139-293-303v-78c0-164 105-302 293-302 192 0 291 139 291 302v78c0 164-102 303-291 303zM523-831c-191 0-293-139-293-303v-78c0-164 105-302 293-302 192 0 291 139 291 302v78c0 164-102 303-291 303zM404 0l1024-1490h169L573 0H404zm1086-102c130-4 138-119 138-250 0-88-34-172-138-172-129 0-140 119-140 250 0 89 37 172 140 172zM523-962c130-4 138-119 138-250 0-88-34-172-138-172-129 0-140 119-140 250 0 89 37 172 140 172" id="Q"/><use transform="matrix(0.0126953125,0,0,0.0126953125,0,0)" xlink:href="#Q" id="k"/><path d="M180 0v-1490h224l606 953c40 63 108 177 176 312-27-437-7-821-13-1265h190V0h-226C860-448 622-778 356-1262c27 476 11 792 15 1262H180" id="R"/><use transform="matrix(0.0126953125,0,0,0.0126953125,0,0)" xlink:href="#R" id="l"/><path d="M763 24c-353 0-583-224-583-531v-983h190v968c0 214 149 370 393 370 243 0 391-156 391-370v-968h190v983c0 307-230 531-581 531" id="S"/><path d="M180 0v-1490h190v1322h690V0H180" id="T"/><g id="o"><use transform="matrix(0.0126953125,0,0,0.0126953125,0,0)" xlink:href="#R"/><use transform="matrix(0.0126953125,0,0,0.0126953125,19.5888671875,0)" xlink:href="#S"/><use transform="matrix(0.0126953125,0,0,0.0126953125,38.9365234375,0)" xlink:href="#T"/><use transform="matrix(0.0126953125,0,0,0.0126953125,53.6376953125,0)" xlink:href="#T"/></g><path d="M295 13c-75 0-135-60-135-135s60-135 135-135 135 60 135 135S370 13 295 13zm0-809c-75 0-135-60-135-135s60-135 135-135 135 60 135 135-60 135-135 135" id="U"/><g id="p"><use transform="matrix(0.0126953125,0,0,0.0126953125,0,0)" xlink:href="#K"/><use transform="matrix(0.0126953125,0,0,0.0126953125,14.599609375,0)" xlink:href="#U"/><use transform="matrix(0.0126953125,0,0,0.0126953125,22.08984375,0)" xlink:href="#y"/></g><path d="M180 0v-1490h510c348 0 508 194 508 460 0 198-88 351-276 417L1256 0h-220L726-579c-117 2-238 0-356 1V0H180zm190-747h312c235 0 327-108 327-283 0-177-92-293-329-293H370v576" id="V"/><g id="q"><use transform="matrix(0.0126953125,0,0,0.0126953125,0,0)" xlink:href="#V"/><use transform="matrix(0.0126953125,0,0,0.0126953125,16.732421875,0)" xlink:href="#U"/><use transform="matrix(0.0126953125,0,0,0.0126953125,24.22265625,0)" xlink:href="#B"/></g><path d="M130 0v-134l666-991c45-67 96-135 147-202-269 9-546 3-821 5v-168h1036v136L502-379c-49 72-103 145-157 216 268-9 546-3 821-5V0H130" id="W"/><g id="r"><use transform="matrix(0.0126953125,0,0,0.0126953125,0,0)" xlink:href="#W"/><use transform="matrix(0.0126953125,0,0,0.0126953125,16.3515625,0)" xlink:href="#U"/><use transform="matrix(0.0126953125,0,0,0.0126953125,23.841796875,0)" xlink:href="#w"/><use transform="matrix(0.0126953125,0,0,0.0126953125,34.4169921875,0)" xlink:href="#x"/></g><path d="M180 0v-1490h528c311 0 458 177 458 395 0 191-114 278-244 313v14c139 9 302 137 302 371 0 225-148 397-499 397H180zm190-168h350c232 0 321-102 321-231 0-149-120-277-311-277H370v508zm0-668h328c160 0 286-101 286-255 0-129-87-231-280-231H370v486" id="X"/><g id="s"><use transform="matrix(0.0126953125,0,0,0.0126953125,0,0)" xlink:href="#X"/><use transform="matrix(0.0126953125,0,0,0.0126953125,17.01171875,0)" xlink:href="#U"/><use transform="matrix(0.0126953125,0,0,0.0126953125,24.501953125,0)" xlink:href="#z"/></g><path d="M545 20c-263 0-445-160-445-446v-80h190v80c0 182 102 279 255 279 152 0 254-97 254-279v-1064h190v1064c0 286-181 446-444 446" id="Y"/><path d="M633 20c-303 0-511-173-511-416 0-188 124-348 291-378v-8c-145-37-237-174-237-332 0-227 192-396 457-396 261 0 456 169 456 396 0 158-94 295-235 332v8c162 30 291 190 291 378 0 243-212 416-512 416zm0-165c197 0 322-103 322-261 0-165-138-283-322-283-188 0-324 118-324 283 0 158 123 261 324 261zm0-703c157 0 272-101 272-252 0-149-110-246-272-246-165 0-273 97-273 246 0 151 112 252 273 252" id="Z"/><g id="t"><use transform="matrix(0.0126953125,0,0,0.0126953125,0,0)" xlink:href="#Y"/><use transform="matrix(0.0126953125,0,0,0.0126953125,14.8408203125,0)" xlink:href="#U"/><use transform="matrix(0.0126953125,0,0,0.0126953125,22.3310546875,0)" xlink:href="#Z"/></g><path d="M98-1322v-168h1126v168H757V0H567v-1322H98" id="aa"/><g id="u"><use transform="matrix(0.0126953125,0,0,0.0126953125,0,0)" xlink:href="#aa"/><use transform="matrix(0.0126953125,0,0,0.0126953125,15.9072265625,0)" xlink:href="#U"/><use transform="matrix(0.0126953125,0,0,0.0126953125,23.3974609375,0)" xlink:href="#B"/></g></defs></g></svg>